<svg width="31" height="31" viewBox="0 0 31 31" fill="none" xmlns="http://www.w3.org/2000/svg">
<g clip-path="url(#clip0_756_8922)">
<path d="M15.3363 30.6726C23.8063 30.6726 30.6726 23.8063 30.6726 15.3363C30.6726 6.86631 23.8063 0 15.3363 0C6.86631 0 0 6.86631 0 15.3363C0 23.8063 6.86631 30.6726 15.3363 30.6726Z" fill="#713349"/>
<path d="M15.3364 7.41824C17.9151 7.41824 18.2196 7.4296 19.2375 7.47504C19.8503 7.48248 20.4574 7.59467 21.0324 7.80676C21.4505 7.96338 21.829 8.21005 22.1412 8.52927C22.4619 8.84105 22.7088 9.22068 22.8637 9.6403C23.0767 10.2143 23.1889 10.8207 23.1954 11.4329C23.2431 12.4508 23.2522 12.7576 23.2522 15.3363C23.2522 17.9151 23.2522 18.2196 23.1954 19.2374C23.1889 19.8496 23.0767 20.4561 22.8637 21.0301C22.7031 21.4465 22.4572 21.8247 22.1418 22.1404C21.8265 22.4562 21.4486 22.7025 21.0324 22.8636C20.4574 23.0757 19.8503 23.1879 19.2375 23.1953C18.2196 23.2408 17.9151 23.2521 15.3364 23.2521C12.7576 23.2521 12.4531 23.2408 11.4353 23.1953C10.8224 23.1879 10.2154 23.0757 9.64034 22.8636C9.22416 22.7025 8.84626 22.4562 8.53089 22.1404C8.21552 21.8247 7.96965 21.4465 7.80907 21.0301C7.59602 20.4561 7.48379 19.8496 7.47735 19.2374C7.42963 18.2196 7.42055 17.9128 7.42055 15.3363C7.42055 12.7598 7.42055 12.4508 7.47735 11.4329C7.48379 10.8207 7.59602 10.2143 7.80907 9.6403C7.96397 9.22068 8.21085 8.84105 8.53158 8.52927C8.84372 8.21005 9.22225 7.96338 9.64034 7.80676C10.2154 7.59467 10.8224 7.48248 11.4353 7.47504C12.4531 7.4296 12.7576 7.41824 15.3364 7.41824ZM15.3364 5.68012C12.7144 5.68012 12.3827 5.68012 11.3557 5.73692C10.5541 5.75495 9.76131 5.90859 9.01098 6.19133C8.36928 6.43902 7.78651 6.81825 7.30013 7.30463C6.81375 7.79101 6.43452 8.37379 6.18682 9.01549C5.90323 9.76479 5.74956 10.557 5.73242 11.358C5.6847 12.3895 5.67334 12.7212 5.67334 15.3409C5.67334 17.9605 5.67334 18.2945 5.73242 19.3215C5.74992 20.1232 5.90358 20.9161 6.18682 21.6662C6.43503 22.3074 6.81446 22.8896 7.3008 23.3755C7.78714 23.8615 8.36964 24.2404 9.01098 24.4881C9.761 24.772 10.554 24.9257 11.3557 24.9425C12.385 24.9903 12.719 25.0016 15.3364 25.0016C17.9538 25.0016 18.29 24.9903 19.317 24.9425C20.1188 24.9257 20.9117 24.772 21.6618 24.4881C22.3031 24.2404 22.8856 23.8615 23.3719 23.3755C23.8583 22.8896 24.2377 22.3074 24.4859 21.6662C24.7692 20.9161 24.9228 20.1232 24.9403 19.3215C24.988 18.2923 24.9994 17.9583 24.9994 15.3409C24.9994 12.7235 24.9994 12.3872 24.9403 11.358C24.9232 10.557 24.7695 9.76479 24.4859 9.01549C24.2382 8.37379 23.859 7.79101 23.3726 7.30463C22.8862 6.81825 22.3035 6.43902 21.6618 6.19133C20.9114 5.90859 20.1186 5.75495 19.317 5.73692C18.2878 5.68921 17.9538 5.68012 15.3364 5.68012Z" fill="#E3D2D8"/>
<path d="M15.3363 10.3764C14.3552 10.376 13.3961 10.6665 12.5801 11.2112C11.7642 11.756 11.1281 12.5304 10.7523 13.4367C10.3766 14.3429 10.2781 15.3403 10.4692 16.3026C10.6603 17.2648 11.1325 18.1488 11.8261 18.8427C12.5196 19.5366 13.4034 20.0092 14.3656 20.2007C15.3277 20.3923 16.3251 20.2942 17.2316 19.9189C18.138 19.5435 18.9128 18.9078 19.4579 18.0921C20.003 17.2764 20.2939 16.3174 20.2939 15.3363C20.2942 14.6851 20.1662 14.0402 19.9172 13.4384C19.6682 12.8367 19.303 12.2899 18.8427 11.8293C18.3823 11.3687 17.8357 11.0033 17.234 10.754C16.6324 10.5048 15.9875 10.3764 15.3363 10.3764ZM15.3363 18.5558C14.6994 18.5558 14.0769 18.3669 13.5474 18.0131C13.0179 17.6592 12.6053 17.1563 12.3617 16.5678C12.118 15.9794 12.0544 15.332 12.1788 14.7074C12.3032 14.0828 12.6101 13.5092 13.0606 13.059C13.5111 12.6088 14.0849 12.3024 14.7096 12.1784C15.3343 12.0544 15.9817 12.1185 16.5699 12.3626C17.1582 12.6066 17.6608 13.0196 18.0143 13.5493C18.3678 14.0791 18.5562 14.7017 18.5558 15.3386C18.5546 16.1917 18.2149 17.0094 17.6112 17.6122C17.0076 18.215 16.1894 18.5535 15.3363 18.5535V18.5558Z" fill="#E3D2D8"/>
<path d="M20.4916 11.3398C21.1316 11.3398 21.6504 10.821 21.6504 10.181C21.6504 9.54109 21.1316 9.0223 20.4916 9.0223C19.8517 9.0223 19.3329 9.54109 19.3329 10.181C19.3329 10.821 19.8517 11.3398 20.4916 11.3398Z" fill="#E3D2D8"/>
</g>
<defs>
<clipPath id="clip0_756_8922">
<rect width="30.6726" height="30.6726" fill="white"/>
</clipPath>
</defs>
</svg>
