<svg width="31" height="31" viewBox="0 0 31 31" fill="none" xmlns="http://www.w3.org/2000/svg">
<g clip-path="url(#clip0_723_8905)">
<path d="M15.3363 30.6726C23.8063 30.6726 30.6726 23.8063 30.6726 15.3363C30.6726 6.86631 23.8063 0 15.3363 0C6.86631 0 0 6.86631 0 15.3363C0 23.8063 6.86631 30.6726 15.3363 30.6726Z" fill="#AAC8C8"/>
<path d="M15.3363 7.41829C17.9151 7.41829 18.2195 7.42965 19.2374 7.4751C19.8502 7.48254 20.4573 7.59473 21.0323 7.80681C21.4504 7.96344 21.829 8.21011 22.1411 8.52933C22.4618 8.84111 22.7087 9.22073 22.8636 9.64036C23.0767 10.2143 23.1889 10.8208 23.1953 11.433C23.243 12.4509 23.2521 12.7576 23.2521 15.3364C23.2521 17.9152 23.2521 18.2196 23.1953 19.2375C23.1889 19.8497 23.0767 20.4562 22.8636 21.0301C22.703 21.4465 22.4572 21.8247 22.1418 22.1405C21.8264 22.4562 21.4485 22.7026 21.0323 22.8637C20.4573 23.0758 19.8502 23.188 19.2374 23.1954C18.2195 23.2408 17.9151 23.2522 15.3363 23.2522C12.7575 23.2522 12.4531 23.2408 11.4352 23.1954C10.8224 23.188 10.2153 23.0758 9.64028 22.8637C9.2241 22.7026 8.84619 22.4562 8.53083 22.1405C8.21546 21.8247 7.96959 21.4465 7.80901 21.0301C7.59596 20.4562 7.48373 19.8497 7.47729 19.2375C7.42957 18.2196 7.42048 17.9129 7.42048 15.3364C7.42048 12.7599 7.42048 12.4509 7.47729 11.433C7.48373 10.8208 7.59596 10.2143 7.80901 9.64036C7.96391 9.22073 8.21078 8.84111 8.53152 8.52933C8.84366 8.21011 9.22219 7.96344 9.64028 7.80681C10.2153 7.59473 10.8224 7.48254 11.4352 7.4751C12.4531 7.42965 12.7575 7.41829 15.3363 7.41829ZM15.3363 5.68018C12.7144 5.68018 12.3826 5.68018 11.3557 5.73698C10.554 5.755 9.76125 5.90865 9.01092 6.19139C8.36922 6.43908 7.78645 6.81831 7.30007 7.30469C6.81369 7.79107 6.43446 8.37384 6.18676 9.01554C5.90317 9.76484 5.74949 10.557 5.73235 11.358C5.68464 12.3895 5.67328 12.7213 5.67328 15.3409C5.67328 17.9606 5.67328 18.2946 5.73235 19.3216C5.74986 20.1232 5.90351 20.9161 6.18676 21.6663C6.43497 22.3074 6.8144 22.8896 7.30074 23.3756C7.78707 23.8615 8.36958 24.2405 9.01092 24.4882C9.76093 24.772 10.5539 24.9257 11.3557 24.9426C12.3849 24.9903 12.7189 25.0017 15.3363 25.0017C17.9537 25.0017 18.29 24.9903 19.3169 24.9426C20.1187 24.9257 20.9117 24.772 21.6617 24.4882C22.303 24.2405 22.8855 23.8615 23.3719 23.3756C23.8582 22.8896 24.2376 22.3074 24.4858 21.6663C24.7691 20.9161 24.9228 20.1232 24.9403 19.3216C24.988 18.2923 24.9993 17.9583 24.9993 15.3409C24.9993 12.7235 24.9993 12.3873 24.9403 11.358C24.9231 10.557 24.7694 9.76484 24.4858 9.01554C24.2382 8.37384 23.8589 7.79107 23.3725 7.30469C22.8862 6.81831 22.3034 6.43908 21.6617 6.19139C20.9114 5.90865 20.1186 5.755 19.3169 5.73698C18.2877 5.68926 17.9537 5.68018 15.3363 5.68018Z" fill="#311F2D"/>
<path d="M15.3363 10.3765C14.3552 10.376 13.3961 10.6665 12.5801 11.2113C11.7642 11.756 11.1281 12.5304 10.7523 13.4367C10.3766 14.343 10.2781 15.3403 10.4692 16.3026C10.6603 17.2649 11.1325 18.1488 11.8261 18.8427C12.5196 19.5366 13.4034 20.0092 14.3656 20.2008C15.3277 20.3923 16.3251 20.2942 17.2316 19.9189C18.138 19.5436 18.9128 18.9078 19.4579 18.0921C20.003 17.2764 20.2939 16.3174 20.2939 15.3363C20.2942 14.6851 20.1662 14.0402 19.9172 13.4385C19.6682 12.8367 19.303 12.2899 18.8427 11.8293C18.3823 11.3687 17.8357 11.0033 17.234 10.7541C16.6324 10.5048 15.9875 10.3765 15.3363 10.3765ZM15.3363 18.5558C14.6994 18.5558 14.0769 18.367 13.5474 18.0131C13.0179 17.6592 12.6053 17.1563 12.3617 16.5679C12.118 15.9794 12.0544 15.332 12.1788 14.7074C12.3032 14.0828 12.6101 13.5092 13.0606 13.059C13.5111 12.6089 14.0849 12.3024 14.7096 12.1784C15.3343 12.0545 15.9817 12.1186 16.5699 12.3626C17.1582 12.6066 17.6608 13.0196 18.0143 13.5493C18.3678 14.0791 18.5562 14.7018 18.5558 15.3386C18.5546 16.1917 18.2149 17.0094 17.6112 17.6122C17.0076 18.215 16.1894 18.5536 15.3363 18.5536V18.5558Z" fill="#311F2D"/>
<path d="M20.4916 11.3398C21.1316 11.3398 21.6504 10.821 21.6504 10.1811C21.6504 9.54113 21.1316 9.02234 20.4916 9.02234C19.8517 9.02234 19.3329 9.54113 19.3329 10.1811C19.3329 10.821 19.8517 11.3398 20.4916 11.3398Z" fill="#311F2D"/>
</g>
<defs>
<clipPath id="clip0_723_8905">
<rect width="30.6726" height="30.6726" fill="white"/>
</clipPath>
</defs>
</svg>
