<svg width="840" height="360" viewBox="0 0 840 360" fill="none" xmlns="http://www.w3.org/2000/svg">
<g clip-path="url(#clip0_7_52)">
<g filter="url(#filter0_f_7_52)">
<ellipse cx="49.4772" cy="194.527" rx="309.305" ry="136.533" transform="rotate(0.928427 49.4772 194.527)" fill="#C389C9"/>
<ellipse cx="222.003" cy="133.535" rx="334.09" ry="111.187" transform="rotate(19.7967 222.003 133.535)" fill="#D6BEBE"/>
<ellipse cx="326.602" cy="-19.7402" rx="433.497" ry="214.596" transform="rotate(-2.84127 326.602 -19.7402)" fill="url(#paint0_radial_7_52)"/>
<path d="M978.33 350.795C945.447 497.424 755.878 579.754 554.918 534.686C353.957 489.617 224.683 500 224.683 286.506C94.0044 42.2464 445 336 674 3.69786C874.96 48.7663 1011.21 204.167 978.33 350.795Z" fill="url(#paint1_radial_7_52)"/>
<ellipse cx="81.5087" cy="324.281" rx="207.318" ry="167.504" transform="rotate(39.6728 81.5087 324.281)" fill="url(#paint2_radial_7_52)"/>
</g>
</g>
<defs>
<filter id="filter0_f_7_52" x="-309.796" y="-285.164" width="1343.02" height="882.181" filterUnits="userSpaceOnUse" color-interpolation-filters="sRGB">
<feFlood flood-opacity="0" result="BackgroundImageFix"/>
<feBlend mode="normal" in="SourceGraphic" in2="BackgroundImageFix" result="shape"/>
<feGaussianBlur stdDeviation="25" result="effect1_foregroundBlur_7_52"/>
</filter>
<radialGradient id="paint0_radial_7_52" cx="0" cy="0" r="1" gradientUnits="userSpaceOnUse" gradientTransform="translate(326.602 -19.7402) rotate(94.9856) scale(270.124 544.166)">
<stop offset="0.312093" stop-color="#713349"/>
<stop offset="1" stop-color="#713349" stop-opacity="0"/>
</radialGradient>
<radialGradient id="paint1_radial_7_52" cx="0" cy="0" r="1" gradientUnits="userSpaceOnUse" gradientTransform="translate(289.5 247.5) rotate(22.5431) scale(545.154 673.62)">
<stop offset="0.0399931" stop-color="#D8B7B7"/>
<stop offset="0.465291" stop-color="#C389C9"/>
<stop offset="0.83831" stop-color="#96D6D6"/>
<stop offset="0.9999" stop-color="#EEF1F1"/>
<stop offset="1" stop-color="#D6BEBE"/>
</radialGradient>
<radialGradient id="paint2_radial_7_52" cx="0" cy="0" r="1" gradientUnits="userSpaceOnUse" gradientTransform="translate(81.5087 324.281) rotate(-81.2919) scale(158.189 193.44)">
<stop offset="0.399118" stop-color="#713349"/>
<stop offset="0.9998" stop-color="#C389C9"/>
<stop offset="0.9999" stop-color="white"/>
<stop offset="1" stop-color="#713349" stop-opacity="0"/>
</radialGradient>
<clipPath id="clip0_7_52">
<rect width="840" height="360" fill="white"/>
</clipPath>
</defs>
</svg>
