<svg width="32" height="31" viewBox="0 0 32 31" fill="none" xmlns="http://www.w3.org/2000/svg">
<g clip-path="url(#clip0_756_8927)">
<path d="M15.87 30.6726C24.34 30.6726 31.2063 23.8063 31.2063 15.3363C31.2063 6.86631 24.34 0 15.87 0C7.4 0 0.533691 6.86631 0.533691 15.3363C0.533691 23.8063 7.4 30.6726 15.87 30.6726Z" fill="#713349"/>
<path d="M23.3337 9.10638C23.3215 9.04695 23.2942 8.99165 23.2544 8.94588C23.2146 8.9001 23.1636 8.86538 23.1065 8.84509C22.8911 8.80334 22.6686 8.81903 22.4612 8.89055C22.4612 8.89055 8.12912 14.0435 7.30891 14.6138C7.13396 14.7365 7.08171 14.8092 7.04535 14.891C6.90449 15.2977 7.34527 15.4772 7.34527 15.4772L11.0396 16.6814C11.1008 16.6963 11.1647 16.6963 11.2259 16.6814C12.0666 16.1497 19.6802 11.3421 20.121 11.1808C20.1891 11.1603 20.2414 11.1808 20.2278 11.2307C20.0506 11.8487 13.4366 17.7265 13.4366 17.7265C13.4205 17.7477 13.4068 17.7705 13.3957 17.7947L13.0526 21.4595C13.0526 21.4595 12.9072 22.5819 14.0296 21.4595C14.8226 20.6666 15.5883 20.0031 15.9722 19.6828C17.2423 20.5598 18.6101 21.5299 19.1985 22.0366C19.298 22.1322 19.4156 22.207 19.5443 22.2565C19.6731 22.3061 19.8104 22.3294 19.9483 22.3252C20.5072 22.3047 20.664 21.689 20.664 21.689C20.664 21.689 23.2769 11.1762 23.3632 9.76755C23.3632 9.63123 23.3836 9.54034 23.3836 9.44719C23.385 9.33166 23.3681 9.21665 23.3337 9.10638Z" fill="#E3D2D8"/>
</g>
<defs>
<clipPath id="clip0_756_8927">
<rect width="30.6726" height="30.6726" fill="white" transform="translate(0.533691)"/>
</clipPath>
</defs>
</svg>
