<svg width="31" height="40" viewBox="0 0 31 40" fill="none" xmlns="http://www.w3.org/2000/svg">
<path d="M14.5371 12.9382C19.5056 12.2386 23.5321 15.2127 23.9967 15.5657C24.9609 16.2732 25.8115 17.1238 26.519 18.088C26.9868 18.7317 27.725 19.8969 29.1465 25.5499C29.7184 27.8244 30.0048 28.9832 30.0917 30.0174C30.2591 32.0151 30.4994 33.9313 29.5671 35.9548C29.1937 36.7626 28.7517 37.7207 27.7271 38.372C26.1178 39.3934 24.1619 38.9706 22.3627 38.5865C21.1031 38.314 20.8982 38.0984 18.8425 37.4311C16.3695 36.6275 15.3707 36.5191 14.2184 36.1693C9.79813 34.8304 7.07837 31.1515 6.75543 30.7041C4.05069 26.9393 4.10326 23.0737 4.44766 21.8699C4.56863 21.462 4.74555 21.0727 4.97337 20.7134C5.50981 19.913 6.15354 19.6147 6.81229 19.1899C7.91093 18.4753 8.56539 17.7018 9.43979 16.6675C10.6854 15.1955 10.5127 14.7996 11.3849 14.0926C12.4181 13.2514 13.5597 13.0723 14.5371 12.9382Z" stroke="#311F2D" stroke-miterlimit="10"/>
<path d="M13.1412 12.8575C13.1249 12.8482 13.1071 12.842 13.0886 12.8392C13.0779 12.8392 13.0779 12.8392 13.08 12.8392C13.4019 12.8006 13.7785 12.7319 14.1154 12.8821C14.8793 13.2126 15.2204 14.0323 15.5026 14.7393C16.1303 16.4194 16.4231 18.4011 15.5176 20.0372C14.9812 20.9835 14.0767 21.6111 13.3182 22.3546C12.829 22.8256 12.3955 23.4039 12.3269 24.0949C12.2625 25.1431 12.8311 26.1451 13.5864 26.8404C12.7818 26.1687 12.1456 25.1624 12.182 24.0831C12.225 23.3492 12.6691 22.7108 13.1594 22.1991C13.859 21.4481 14.7387 20.7732 15.1979 19.8666C16.0863 18.0835 15.4747 15.707 14.4802 14.087C14.1315 13.587 13.8364 13.4003 13.2699 13.5623C13.1014 13.6051 12.9232 13.5868 12.7668 13.5108L13.138 12.8575H13.1412Z" fill="#311F2D"/>
<path d="M15.5959 15.4746C15.9597 16.0175 16.0101 16.7546 16.3362 17.2889C16.5723 17.6654 16.8072 18.1053 17.1645 18.3735C17.3889 18.5704 17.6356 18.7404 17.8994 18.8799C18.202 19.0334 18.5614 19.131 18.8436 19.3863C19.4594 19.9582 19.6858 20.8326 19.6118 21.6394C19.6021 21.7252 19.5914 21.8111 19.5774 21.8958C19.4791 21.5786 19.3616 21.2676 19.2255 20.9646C19.0737 20.6167 18.8549 20.3021 18.5818 20.0387C18.3082 19.7672 17.9273 19.7307 17.5722 19.5494C17.3207 19.4271 17.0875 19.2704 16.8791 19.0838C16.4618 18.7315 16.1282 18.2906 15.9028 17.7931C15.7043 17.3856 15.6064 16.9363 15.6174 16.4831C15.6174 16.1891 15.6238 15.7707 15.5959 15.4768V15.4746Z" fill="#311F2D"/>
<path d="M23.5579 38.4618C19.6418 38.2161 16.4972 35.476 13.7646 32.9085C11.5695 30.8035 9.69835 28.1803 9.04389 25.1559C8.71451 23.6656 9.20267 22.1368 9.93438 20.8579C10.5781 19.7711 11.3678 18.784 11.7679 17.5749C11.9792 16.9834 12.1312 16.3725 12.2218 15.751C12.2162 16.3891 12.1352 17.0244 11.9804 17.6435C11.8197 18.2675 11.5894 18.8714 11.2937 19.4438C10.9987 20.0093 10.6629 20.535 10.3893 21.1036C9.7874 22.3063 9.39365 23.6785 9.71551 25.0068C9.97447 26.0498 10.3668 27.0552 10.8828 27.998C11.3422 28.8088 11.8498 29.5912 12.4031 30.3411C13.3494 31.5664 14.4716 32.6736 15.6014 33.7336C17.8812 35.8354 20.4229 37.9103 23.56 38.4661L23.5579 38.4618Z" fill="#311F2D"/>
<path d="M9.50732 25.377C9.64573 25.6312 9.70795 25.9381 9.82382 26.1966C10.0663 26.7105 10.4128 27.1837 10.7304 27.6601C11.2529 28.483 12.005 29.1492 12.8022 29.706C12.9089 29.7781 13.022 29.8403 13.1401 29.8917C14.1698 30.3478 15.2723 30.6178 16.3963 30.6888C17.9938 30.7028 19.3392 31.6383 20.1514 32.9633C19.3285 32.2048 18.3275 31.516 17.2063 31.3808C16.6474 31.3122 16.038 31.3808 15.4597 31.3025C14.448 31.1684 13.4427 30.9216 12.5479 30.4131C11.8589 29.9512 11.2455 29.3855 10.7293 28.7362C10.5374 28.4931 10.3726 28.2297 10.238 27.9508C9.97296 27.4144 9.70152 26.8715 9.58028 26.2707C9.52771 25.966 9.55024 25.6806 9.50732 25.378V25.377Z" fill="#311F2D"/>
<path d="M20.483 15.5634C22.1996 17.0461 23.839 18.782 24.6093 20.9632C24.7564 21.41 24.8641 21.8688 24.9312 22.3343C24.9762 22.6015 24.9966 22.9362 25.0159 23.2066C25.0427 23.8278 25.0234 24.4758 25.0063 25.0884C24.9934 25.5401 24.9708 26.0143 24.9204 26.4617C24.8378 27.26 24.6372 28.3489 24.5063 29.1439C24.3926 29.895 24.1662 31.0344 24.1565 31.7747C24.1458 33.1007 24.693 34.3549 25.4891 35.4225C24.488 34.4966 23.7671 33.1801 23.6651 31.7875C23.6104 29.5216 24.2348 27.319 24.2563 25.0616C24.31 23.7152 24.3496 22.4341 23.9806 21.1574C23.3433 19.0224 21.8745 17.2628 20.484 15.5591L20.483 15.5634Z" fill="#311F2D"/>
<path d="M20.7598 26.717C20.8934 25.6434 21.292 24.6199 21.9196 23.7387C22.1588 23.405 22.4732 23.0885 22.7178 22.7816C23.6523 21.536 23.5761 20.3955 22.9431 19.0265C22.7768 18.6532 22.5783 18.2863 22.3755 17.915C22.6985 18.1934 22.9902 18.506 23.2456 18.8474C24.5009 20.4985 24.3464 22.287 22.8626 23.7258C21.9796 24.6013 21.381 25.6173 20.7598 26.717V26.717Z" fill="#311F2D"/>
<path d="M24.8979 25.022C25.1028 25.5938 24.9097 26.2633 24.9194 26.8362C24.9139 27.0929 24.9591 27.3481 25.0524 27.5872C25.194 27.8984 25.5202 28.2889 25.753 28.5904C25.9343 28.8296 26.1285 28.9627 26.3581 29.1858C26.5922 29.4236 26.775 29.707 26.8949 30.0183C27.0149 30.3297 27.0695 30.6624 27.0555 30.9958C27.0525 31.1525 27.036 31.3086 27.0061 31.4625C26.8066 30.8746 26.577 30.3306 26.209 29.9454C26.0073 29.7255 25.8088 29.6139 25.5556 29.4229C25.184 29.1049 24.8672 28.7279 24.6179 28.3071C24.3439 27.85 24.252 27.3065 24.3604 26.7847C24.473 26.1485 24.8078 25.6571 24.8968 25.0273L24.8979 25.022Z" fill="#311F2D"/>
<path d="M9.43974 16.6696C9.7778 16.2768 10.0852 15.8585 10.3592 15.4186C10.4676 15.2436 10.533 15.0455 10.5502 14.8403C10.6575 13.5883 10.6446 13.2814 10.8012 12.1474C10.9843 10.9996 11.0896 9.84076 11.1167 8.67877C11.1403 7.11236 11.0233 6.66282 10.6961 6.47185C10.2358 6.20577 9.26808 6.06844 8.54174 6.31306C8.30409 6.43819 8.118 6.64288 8.01602 6.89135C7.80145 7.36878 7.96989 10.1561 7.70059 12.1989C7.62013 12.8147 7.471 14.7449 7.15771 18.8304C8.06216 18.1792 8.65868 17.5934 9.43974 16.6696Z" stroke="#311F2D" stroke-miterlimit="10"/>
<path d="M6.75971 30.6996C6.55264 30.4121 6.36382 30.1245 6.18786 29.8359C6.11812 30.4496 6.02586 31.2597 5.91428 32.221C5.54842 35.357 5.64498 36.3097 6.07199 36.5307C6.31983 36.6584 6.59234 36.6112 7.06977 36.5307C7.51824 36.4546 8.36582 36.3559 8.80463 35.7422C8.94541 35.5385 9.03553 35.3042 9.06749 35.0587C9.15546 34.4676 9.20911 33.8947 9.24022 33.3486C8.31562 32.5625 7.48343 31.6738 6.75971 30.6996V30.6996Z" stroke="#311F2D" stroke-miterlimit="10"/>
<path d="M10.8012 12.1474C10.6446 13.2815 10.6553 13.5883 10.5502 14.8404C10.5342 15.0258 10.479 15.2057 10.3882 15.3682V15.3682C10.71 14.8468 10.8506 14.5282 11.3838 14.0936C12.417 13.2504 13.5586 13.0744 14.536 12.9371C14.8407 12.8942 15.1411 12.8648 15.4372 12.8491C15.602 11.9671 15.9811 11.1392 16.5412 10.4383C16.7794 10.1443 17.9874 8.64446 19.7727 8.50713C20.9003 8.4213 21.4732 8.93628 22.3348 8.4685C22.4678 8.39555 23.2564 6.90209 23.1695 6.69395C22.706 5.5921 20.8831 5.08463 19.8907 4.96017C18.6551 4.7769 17.3952 4.84404 16.1861 5.15758C13.7785 5.7938 12.0951 7.75611 11.1027 9.1412C11.058 10.1481 10.9574 11.1517 10.8012 12.1474V12.1474Z" stroke="#311F2D" stroke-miterlimit="10"/>
<path d="M13.9287 6.22929C14.6124 5.74134 15.377 5.37812 16.1871 5.1564C16.3631 5.11027 16.5337 5.07057 16.701 5.03731C16.7712 5.02327 16.8341 4.9851 16.879 4.92943C16.9239 4.87376 16.9479 4.80412 16.9467 4.73261C16.9296 3.66831 16.8394 1.69957 16.4103 1.31977C15.8213 0.795128 15.4758 1.00434 14.8256 1.31977C14.1755 1.6352 14.3203 2.0032 14.3203 2.0032C14.3203 2.0032 14.3203 3.00205 14.0714 5.20898C14.036 5.58556 13.9813 5.92352 13.9287 6.22929Z" stroke="#311F2D" stroke-miterlimit="10"/>
<path d="M16.95 4.99325L17.3566 4.93102C17.9939 4.83017 19.3092 4.88704 19.8918 4.96106C20.138 4.99308 20.3823 5.03857 20.6235 5.09732L21.1535 3.47619C21.1535 3.47619 21.1535 2.84641 20.483 2.42584C19.9369 2.08251 17.569 2.05462 16.7193 2.05569C16.9092 2.93117 16.9446 4.30231 16.95 4.99325Z" stroke="#311F2D" stroke-miterlimit="10"/>
<path d="M18.762 11.3063C19.2223 10.7774 19.5442 10.6626 20.0205 10.6218C20.3138 10.5957 20.6084 10.59 20.9024 10.6046C20.929 10.6077 20.9559 10.6011 20.9781 10.5862C21.0003 10.5712 21.0165 10.5489 21.0237 10.5231C21.0913 10.2087 21.1546 9.87936 21.2114 9.54784C21.2629 9.24314 21.3048 8.94809 21.3434 8.65734C20.8981 8.61121 20.4325 8.45993 19.7791 8.50929C17.9939 8.64661 16.7858 10.1465 16.5476 10.4405C15.9875 11.1414 15.6084 11.9693 15.4436 12.8512V12.8512C16.3201 12.8044 17.1991 12.8573 18.0636 13.009C18.099 12.9551 18.1251 12.8956 18.1408 12.833C18.3157 11.9929 18.5904 11.5048 18.762 11.3063Z" stroke="#311F2D" stroke-miterlimit="10"/>
<path d="M4.97335 20.7156C5.5098 19.9152 6.15353 19.6169 6.81228 19.1921C7.16734 18.962 7.50383 18.7044 7.81864 18.4218L7.79719 18.3391C7.5987 18.5033 7.38842 18.661 7.15346 18.8316C7.18886 18.3724 7.22212 17.9422 7.25323 17.5366C6.47298 17.9762 5.64833 18.3319 4.79311 18.5977C4.00722 18.8348 3.20302 19.0063 2.38878 19.1105C2.04331 19.1599 1.72573 19.1953 1.44356 19.2178C1.36939 19.2248 1.29778 19.2486 1.23421 19.2874C1.17063 19.3263 1.11676 19.3791 1.07671 19.4419C1.03666 19.5047 1.01148 19.5759 1.0031 19.6499C0.994725 19.7239 1.00336 19.7989 1.02836 19.8691L1.48326 21.134C1.49351 21.164 1.51362 21.1897 1.5403 21.2068C1.56699 21.224 1.59869 21.2316 1.63025 21.2284L4.8489 20.9216C4.92293 20.7971 4.97335 20.7156 4.97335 20.7156Z" stroke="#311F2D" stroke-miterlimit="10"/>
<path d="M23.7016 15.3521C24.3642 15.3141 25.0185 15.1863 25.6467 14.9723L25.489 13.5668C25.2795 13.2808 24.9721 13.0818 24.6254 13.0078C24.0438 12.8834 23.9387 13.1462 23.177 13.5142C22.4152 13.8822 19.5485 13.3565 19.5485 13.3565C21.0285 13.8009 22.4298 14.4742 23.7016 15.3521Z" stroke="#311F2D" stroke-miterlimit="10"/>
<path d="M25.3968 15.0562C25.3238 15.0788 25.2509 15.0991 25.1822 15.1185L25.1489 15.1281C25.076 15.1464 25.002 15.1635 24.929 15.1796L24.8957 15.1871C24.8217 15.2032 24.7466 15.2182 24.6726 15.2322H24.6479C24.5707 15.2461 24.4934 15.259 24.4162 15.2697C24.1705 15.3062 23.9323 15.3309 23.7102 15.347C23.8518 15.4457 23.9527 15.5208 24.0052 15.5616C24.667 16.0515 25.278 16.6064 25.8292 17.2181C26.2939 17.0281 26.768 16.8619 27.2497 16.7203C27.4365 16.6701 27.6094 16.5778 27.7551 16.4504C27.9007 16.323 28.0152 16.1639 28.0897 15.9853L27.6166 14.5659C27.6166 14.5659 27.0394 14.4586 25.6468 14.9736C25.5717 15.0004 25.4966 15.0262 25.4204 15.0498L25.3968 15.0562Z" stroke="#311F2D" stroke-miterlimit="10"/>
<path d="M2.97132 17.5364C3.20736 17.751 4.22553 18.2166 5.31879 18.2788C5.53875 18.2926 5.75895 18.2559 5.96253 18.1715C6.29834 18.0299 6.6599 17.8582 7.03541 17.6544C7.10944 17.5954 7.1824 17.5332 7.24999 17.4709C7.31007 16.6877 7.36264 16.0022 7.40985 15.4056L7.21458 15.146C7.21458 15.146 6.92061 15.6921 5.67499 15.8917C4.57314 16.0687 3.58287 15.6771 3.36829 15.5859C3.35657 15.5806 3.34326 15.58 3.33109 15.5841C3.31892 15.5883 3.30882 15.597 3.30284 15.6084L2.58401 16.9023C2.56904 16.9282 2.56116 16.9577 2.56116 16.9876C2.56116 17.0175 2.56904 17.047 2.58401 17.0729C2.68845 17.2464 2.8191 17.4028 2.97132 17.5364V17.5364Z" stroke="#311F2D" stroke-miterlimit="10"/>
<path d="M14.5371 12.9382C19.5056 12.2386 23.5321 15.2127 23.9967 15.5657C24.9609 16.2732 25.8115 17.1238 26.519 18.088C26.9868 18.7317 27.725 19.8969 29.1465 25.5499C29.7184 27.8244 30.0048 28.9832 30.0917 30.0174C30.2591 32.0151 30.4994 33.9313 29.5671 35.9548C29.1948 36.7626 28.7517 37.7207 27.7271 38.372C26.1178 39.3934 24.1619 38.9706 22.3627 38.5865C21.1031 38.314 20.8982 38.0984 18.8425 37.4311C16.3695 36.6275 15.3707 36.5191 14.2184 36.1693C9.79813 34.8304 7.07837 31.1515 6.75543 30.7041C4.05069 26.9393 4.10326 23.0737 4.44766 21.8699C4.56863 21.462 4.74555 21.0727 4.97337 20.7134C5.50981 19.913 6.15354 19.6147 6.81229 19.1899C7.91093 18.4753 8.56539 17.7018 9.43979 16.6675C10.6854 15.1955 10.5127 14.7996 11.3849 14.0926C12.4181 13.2514 13.5597 13.0723 14.5371 12.9382Z" stroke="#311F2D" stroke-miterlimit="10"/>
</svg>
