<svg width="566" height="676" viewBox="0 0 566 676" fill="none" xmlns="http://www.w3.org/2000/svg">
<g opacity="0.2">
<path d="M380.602 380.17C316.736 399.589 293.003 432.816 286.962 441.878C269.269 468.632 254.597 512.647 268.406 548.463C297.75 625.274 450.077 644.693 560.978 610.171C629.589 588.595 733.586 529.908 727.113 472.084C718.914 395.273 516.099 339.176 380.602 380.17Z" fill="white"/>
<path d="M381.465 590.753C361.615 585.574 331.84 586.006 302.496 548.464C297.75 542.854 278.331 516.099 285.235 488.051C289.119 471.221 301.633 459.57 356.436 427.638C404.335 399.589 428.069 385.78 441.015 381.896C515.668 359.026 620.528 375.423 647.713 427.638C653.755 439.72 659.364 460.002 669.289 460.002C679.214 460.002 682.235 434.542 697.338 431.953C712.442 429.364 727.113 445.761 729.702 462.159C732.292 478.557 723.23 490.208 710.284 510.921C703.38 522.572 700.359 525.161 701.654 526.887C702.948 528.614 788.821 513.079 796.588 477.262C805.65 433.679 721.072 364.635 632.61 347.806C601.109 341.765 569.608 346.08 506.606 354.279C422.028 365.498 373.266 371.971 316.737 400.452C291.708 412.966 193.321 462.591 200.226 516.531C204.973 551.053 252.008 572.629 268.838 580.396C324.072 605.856 387.506 592.479 381.465 590.753Z" fill="#AAC8C8"/>
<path d="M380.602 380.17C365.499 396.137 364.204 416.85 363.341 434.974C360.32 490.208 399.157 531.634 413.829 547.169C425.049 560.115 438.426 570.903 453.097 579.533C515.237 611.897 582.985 579.102 592.479 574.355C614.486 564.43 633.473 548.464 647.282 528.182C664.111 502.291 665.837 477.263 668.427 446.193C671.016 406.925 672.31 387.506 659.796 371.971C639.515 347.375 598.089 349.101 573.492 349.964C548.895 350.827 547.601 353.416 527.319 357.3C437.563 373.698 405.199 355.142 380.602 380.17Z" fill="#247095"/>
<path d="M607.582 234.748C573.492 226.98 560.114 205.836 542.854 209.288C525.593 212.74 522.141 249.851 492.797 262.365C478.988 268.406 485.893 306.38 494.955 311.99C504.017 317.6 516.531 299.476 542.422 299.044C568.313 298.613 567.882 311.558 587.732 311.127C614.918 311.127 641.672 286.53 638.651 275.311C635.631 264.091 646.419 243.81 607.582 234.748Z" fill="#AAC8C8"/>
<path d="M187.712 478.126C135.929 526.024 133.772 547.601 135.929 559.683C137.224 567.019 140.676 573.923 145.854 579.533C161.821 597.225 188.575 591.184 228.706 590.321C268.838 589.458 249.419 582.122 298.181 588.595C346.943 595.068 403.472 598.952 404.767 598.952C422.028 597.225 299.044 580.828 256.755 564.43C248.125 560.546 229.138 552.779 217.918 534.223C214.898 528.614 206.699 514.373 211.446 500.996C216.192 487.619 230.864 486.756 252.44 469.495C265.817 458.276 270.564 450.077 278.331 441.446C318.463 394.842 387.938 386.643 386.643 381.896C385.349 377.15 370.245 379.739 348.238 384.485C271.427 400.883 222.234 445.762 187.712 478.126Z" fill="#247095"/>
<path d="M160.526 439.289C158.8 436.699 192.458 419.007 195.048 388.801C196.342 375.423 190.732 362.046 198.068 357.3C205.404 352.553 204.541 356.868 212.308 355.573C225.254 352.984 235.611 343.922 239.494 331.408C242.515 319.757 234.316 311.127 238.2 308.106C242.083 305.085 246.399 310.695 254.166 312.421C261.933 314.147 279.626 307.675 292.571 299.907C308.969 289.982 325.798 281.352 343.059 273.584C374.129 261.502 392.253 254.166 413.829 256.324C418.144 256.755 425.911 258.05 429.364 253.734C432.816 249.419 423.754 226.549 426.774 224.822C429.795 223.096 435.836 239.926 452.666 246.399C456.118 247.693 456.549 247.262 495.818 246.399C503.585 245.967 507.037 245.967 511.353 243.378C515.668 240.789 521.709 226.117 526.024 224.822C530.34 223.528 534.655 234.747 544.58 242.083C554.505 249.419 568.313 248.125 583.417 248.125C598.52 248.125 611.897 251.577 642.535 258.05C673.173 264.522 697.77 274.016 736.175 289.119C749.984 294.297 763.793 299.476 777.601 305.517C788.821 310.695 800.472 315.01 812.123 318.463C822.048 320.62 823.774 320.189 829.384 322.778C843.624 328.819 843.192 337.881 855.275 345.648C867.358 353.416 885.05 348.238 889.797 357.3C894.543 366.361 888.502 379.307 880.303 381.896C872.104 384.485 856.57 352.121 830.678 351.258C823.774 351.258 819.027 353.416 812.123 349.964C805.219 346.511 804.787 338.313 796.588 332.703C788.389 327.093 774.581 334.86 761.203 327.956C747.826 321.052 750.847 317.6 746.1 311.127C736.175 297.75 721.935 293.003 664.111 280.92C633.042 274.447 617.507 270.995 606.287 269.269C573.06 263.659 539.401 260.639 505.743 260.639C464.317 260.639 423.322 266.249 383.622 277.9C349.532 288.256 317.168 302.496 286.962 321.052C255.46 339.607 239.494 349.101 226.117 369.382C217.055 382.759 216.192 390.958 203.678 406.061C184.259 429.364 161.82 441.015 160.526 439.289Z" fill="#247095"/>
<path d="M184.691 475.105C177.787 469.064 81.126 538.97 98.3869 581.691C103.134 592.91 129.456 595.931 143.265 599.383C166.999 605.424 167.862 599.815 187.712 610.171C193.753 613.192 198.5 617.939 201.952 623.98C221.802 648.145 223.96 656.775 239.494 681.372C255.029 705.969 225.254 614.055 204.11 602.404C172.177 585.143 154.916 590.321 145.854 576.081C126.867 545.874 190.732 480.715 184.691 475.105Z" fill="#247095"/>
<path d="M455.255 364.204C450.94 369.814 447.919 376.287 446.625 383.191C445.762 387.938 444.467 397.863 449.645 403.041C454.823 408.219 478.557 406.061 478.557 406.061C478.557 406.061 477.694 428.932 482.872 430.658C488.051 432.384 487.619 425.48 498.407 413.397C509.195 401.315 509.627 400.883 514.373 398.726C519.12 396.568 531.203 400.883 535.949 397.431C540.696 393.979 540.696 368.088 527.319 355.573C513.942 343.059 469.927 346.512 455.255 364.204Z" fill="#AAC8C8"/>
<path d="M163.978 372.403C163.978 377.581 158.8 390.527 179.081 354.279C209.719 299.476 270.564 286.53 299.907 273.585C347.806 252.872 378.013 248.988 377.581 247.693C377.15 246.399 276.174 248.556 202.384 311.127C168.725 339.176 164.41 368.951 163.978 372.403Z" fill="#247095"/>
<path d="M127.299 578.67C129.456 579.102 132.477 562.272 146.717 540.696C155.348 527.751 164.41 513.942 181.239 506.175C198.068 498.407 195.911 503.154 202.815 497.544C209.719 491.934 209.288 475.537 220.076 467.338C230.864 459.139 236.905 466.043 248.125 458.707C259.344 451.371 255.461 447.056 263.228 437.131C270.995 427.206 285.667 425.049 321.483 404.767C337.45 395.705 334.429 395.705 343.059 391.821C363.772 382.328 380.602 382.328 399.157 381.033C431.521 378.013 430.227 373.698 461.728 370.245C493.229 366.793 534.655 369.814 582.554 376.718C613.623 380.602 626.569 388.801 653.323 387.938H683.098C711.579 388.369 719.346 404.336 724.956 409.082C740.922 422.891 759.477 433.679 778.896 441.446C793.136 446.193 818.164 455.255 845.782 445.762C865.632 438.426 889.797 420.733 893.249 396.137C895.407 382.328 891.091 368.088 886.776 368.088C882.461 368.088 881.598 398.726 860.885 413.398C840.172 428.069 804.787 418.576 802.63 409.082C800.472 399.589 845.35 392.253 858.727 357.3C866.495 336.587 860.885 314.579 856.57 314.148C852.255 313.716 851.392 339.607 830.678 363.773C816.007 381.033 793.136 395.274 785.369 389.664C777.601 384.054 806.082 320.189 798.314 316.305C790.547 312.422 771.56 345.649 763.793 342.197C756.025 338.744 766.382 299.044 765.95 299.044C765.519 299.044 765.95 322.347 750.847 333.566C746.532 336.587 744.806 336.155 733.586 340.039C710.716 347.806 701.222 356.868 699.065 355.142C696.907 353.416 723.23 332.272 733.586 299.044C743.943 265.817 734.881 238.631 731.429 238.631C727.976 238.631 733.586 274.016 712.01 307.675C696.475 331.408 669.29 349.964 660.228 344.354C651.166 338.744 658.502 318.894 660.228 311.99C670.153 274.448 697.77 255.029 694.749 251.577C691.729 248.125 674.899 255.461 660.228 270.995C635.199 296.887 641.672 324.936 623.548 331.408C612.76 334.861 598.089 329.251 591.184 320.62C584.28 311.99 592.91 289.982 593.342 251.577C593.773 220.076 586.437 197.205 584.711 197.637C582.985 198.068 590.753 236.474 576.081 281.784C575.649 283.941 562.704 321.915 552.347 320.62C541.991 319.326 538.97 261.934 532.929 262.365C526.888 262.797 531.203 291.277 513.51 320.62C507.901 329.682 498.407 345.649 489.777 344.354C468.632 340.902 468.632 236.042 463.885 236.474C459.139 236.905 457.844 286.099 457.413 290.414C456.118 316.305 456.55 325.799 448.782 333.566C441.015 341.333 425.48 343.06 414.26 340.039C372.403 327.525 365.499 241.221 358.163 242.947C350.827 244.673 354.279 266.68 358.163 288.256C362.046 309.832 365.93 313.285 368.951 335.724C371.971 358.163 368.519 364.636 366.793 365.93C365.067 367.225 345.649 364.636 336.587 357.3C312.853 337.45 312.853 298.613 312.853 299.044C312.853 299.476 330.545 368.088 317.168 374.561C303.791 381.033 289.551 357.731 278.331 340.039C260.207 310.264 261.502 283.51 258.913 283.941C256.324 284.373 246.399 326.662 267.543 359.457C275.311 371.108 284.373 377.15 282.646 387.506C279.626 400.452 267.975 409.082 254.598 409.082C238.2 406.493 229.138 379.739 226.549 381.033C223.96 382.328 243.378 410.377 233.022 430.658C226.98 441.446 215.329 448.351 202.815 447.919C190.301 446.625 182.534 434.542 179.081 437.131C175.629 439.72 187.28 454.824 181.239 465.18C175.198 475.537 163.115 469.064 157.505 478.126C151.896 487.188 161.389 491.503 159.663 504.017C157.937 516.531 144.128 520.846 133.772 540.696C123.415 560.546 125.141 577.807 127.299 578.67Z" fill="#247095"/>
<path d="M284.804 646.419C280.489 650.303 277.9 655.912 278.331 661.522C278.763 672.31 290.845 682.667 319.326 696.044C355.573 712.442 385.348 718.483 418.576 726.25C475.536 738.765 468.2 739.196 487.187 742.648C566.587 756.457 642.967 740.491 642.967 732.723C642.967 724.956 444.035 745.669 349.532 674.468C339.607 666.7 300.77 635.199 284.804 646.419Z" fill="#AAC8C8"/>
<path d="M239.926 634.336C238.631 638.22 278.331 687.413 323.641 702.517C352.984 711.579 406.925 734.018 478.989 743.511C580.396 756.457 669.29 741.785 668.858 737.038C668.427 732.292 583.848 740.922 457.413 719.778C343.922 700.359 241.652 629.59 239.926 634.336Z" fill="#247095"/>
<path d="M202.815 602.835C207.13 604.561 245.535 632.61 300.77 648.145C335.292 657.638 370.245 664.974 405.63 670.153C445.761 676.194 475.105 680.941 515.668 683.098C527.75 683.53 564.861 681.804 638.651 678.783C681.804 676.625 711.578 674.899 740.059 655.049C742.216 653.323 763.361 638.22 760.772 631.747C758.183 625.274 749.121 626.569 699.064 637.788C655.912 647.282 633.473 654.618 617.075 658.933C588.163 665.837 554.936 663.248 489.777 657.207C437.562 652.46 385.78 645.556 334.429 635.631C251.145 619.233 187.28 597.225 202.815 602.835Z" fill="#247095"/>
<path d="M154.916 560.115C157.937 551.916 166.567 547.6 174.766 549.758C180.376 551.916 179.081 557.525 185.123 564.43C191.164 571.334 211.445 571.766 212.308 577.375C213.171 582.985 201.952 589.027 190.732 590.321C180.376 590.753 170.451 586.437 163.547 578.67C159.231 574.355 152.759 567.45 154.916 560.115Z" fill="#AAC8C8"/>
<path d="M360.32 618.37C360.752 615.349 406.062 623.98 474.673 618.37C550.621 611.466 588.595 608.014 604.13 603.267C619.665 598.52 633.473 592.91 640.809 601.109C648.145 609.308 643.83 620.528 638.652 629.158C627.432 646.85 597.226 649.871 462.159 633.905C427.206 629.59 360.32 621.391 360.32 618.37Z" fill="#247095"/>
<path d="M411.24 603.267C408.219 604.13 408.651 613.623 409.945 620.527C411.24 627.432 412.966 626.137 414.26 632.179C415.555 638.22 414.692 648.576 415.987 649.008C417.281 649.439 425.911 636.925 424.185 623.548C422.459 610.171 414.26 601.972 411.24 603.267Z" fill="#247095"/>
<path d="M452.234 614.918C447.919 616.212 453.96 654.186 458.707 654.186C463.454 654.186 464.317 642.104 461.728 631.316C459.139 620.528 454.392 614.055 452.234 614.918Z" fill="#247095"/>
<path d="M507.038 611.897C504.88 611.466 500.565 621.822 501.859 632.179C503.154 642.535 514.805 655.912 516.963 655.049C519.12 654.186 515.668 650.302 512.647 637.788C509.627 625.274 509.195 611.897 507.038 611.897Z" fill="#247095"/>
<path d="M538.539 611.897C534.655 612.76 532.929 620.527 535.086 625.706C537.244 630.884 539.833 629.589 543.717 634.336C547.601 639.083 549.327 648.576 550.19 648.576C551.053 648.576 556.231 623.548 544.58 614.055C543.285 612.329 540.696 611.466 538.539 611.897Z" fill="#247095"/>
<path d="M181.239 506.175C175.629 507.038 171.314 519.552 173.472 529.908C176.924 546.738 198.068 558.389 203.678 554.073C209.288 549.758 201.952 532.066 197.205 523.004C192.459 513.942 187.712 504.88 181.239 506.175Z" fill="#247095"/>
<path d="M348.669 660.228C349.964 655.481 403.041 672.742 496.249 678.783C611.466 686.119 682.667 669.289 683.53 675.331C684.393 681.372 608.876 710.284 517.825 706.832C426.774 703.38 346.943 666.269 348.669 660.228Z" fill="#247095"/>
<path d="M472.516 457.413C462.159 444.035 434.973 448.782 420.733 454.392C413.829 456.981 401.746 461.728 399.157 471.653C396.568 481.578 402.178 484.167 409.945 499.702C417.713 515.236 421.596 522.141 422.028 522.141C422.459 522.141 442.309 540.696 472.516 548.032C494.955 553.21 522.141 559.683 537.244 545.874C543.717 540.265 546.737 531.634 556.662 529.908C566.587 528.182 566.156 532.066 573.923 532.066C592.047 531.203 607.582 508.764 612.76 500.565C627.863 477.263 640.378 438.426 625.706 426.343C620.096 421.596 612.329 422.459 599.815 424.185C587.3 425.912 564.43 428.501 558.82 443.604C553.21 458.707 569.608 463.022 565.293 478.126C560.978 493.229 549.327 500.565 536.381 502.722C529.908 503.585 526.024 502.291 519.983 506.174C513.942 510.058 513.079 516.531 508.332 516.962C503.585 517.394 503.154 514.373 494.092 506.174L483.304 496.249C471.653 483.304 481.578 468.632 472.516 457.413Z" fill="#AAC8C8"/>
</g>
</svg>
