<svg width="231" height="192" viewBox="0 0 231 192" fill="none" xmlns="http://www.w3.org/2000/svg">
<g opacity="0.7">
<path d="M85.6297 85.5325C71.2608 89.9014 65.921 97.3771 64.5618 99.4159C60.5812 105.435 57.2803 115.338 60.3871 123.396C66.989 140.678 101.261 145.047 126.212 137.28C141.649 132.425 165.047 119.222 163.59 106.212C161.746 88.9305 116.115 76.3092 85.6297 85.5325Z" fill="white"/>
<path d="M85.8239 132.911C81.3579 131.746 74.6589 131.843 68.057 123.397C66.989 122.134 62.6201 116.115 64.1735 109.804C65.0473 106.018 67.8628 103.397 80.1928 96.2122C90.9695 89.9016 96.3093 86.7948 99.2219 85.921C116.018 80.7754 139.61 84.4647 145.727 96.2122C147.086 98.9307 148.348 103.494 150.581 103.494C152.814 103.494 153.493 97.7656 156.892 97.1831C160.29 96.6006 163.591 100.29 164.173 103.979C164.756 107.668 162.717 110.29 159.804 114.95C158.251 117.571 157.571 118.154 157.862 118.542C158.154 118.931 177.474 115.435 179.222 107.377C181.26 97.5714 162.231 82.0375 142.328 78.2511C135.241 76.8919 128.154 77.8628 113.979 79.7074C94.95 82.2317 83.9792 83.688 71.2608 90.0958C65.6298 92.9113 43.494 104.076 45.0474 116.212C46.1153 123.979 56.6978 128.833 60.4842 130.581C72.9113 136.309 87.1831 133.299 85.8239 132.911Z" fill="#AAC8C8"/>
<path d="M85.6297 85.5325C82.2317 89.1247 81.9404 93.7849 81.7463 97.8625C81.0666 110.29 89.8045 119.61 93.1054 123.105C95.6297 126.018 98.6394 128.445 101.94 130.387C115.921 137.668 131.164 130.29 133.299 129.222C138.251 126.989 142.523 123.396 145.629 118.833C149.416 113.008 149.804 107.377 150.387 100.387C150.969 91.5519 151.26 87.183 148.445 83.6878C143.882 78.1539 134.562 78.5422 129.028 78.7364C123.494 78.9306 123.202 79.5131 118.639 80.3869C98.4452 84.0762 91.1637 79.9015 85.6297 85.5325Z" fill="#247095"/>
<path d="M136.697 52.8141C129.028 51.0665 126.018 46.3093 122.134 47.086C118.251 47.8627 117.474 56.2121 110.872 59.0276C107.765 60.3869 109.319 68.9305 111.358 70.1926C113.397 71.4548 116.212 67.3771 122.037 67.28C127.862 67.183 127.765 70.0956 132.231 69.9985C138.348 69.9985 144.367 64.4645 143.688 61.9403C143.008 59.416 145.435 54.8529 136.697 52.8141Z" fill="#AAC8C8"/>
<path d="M42.2318 107.571C30.5814 118.348 30.096 123.202 30.5814 125.921C30.8727 127.571 31.6494 129.125 32.8144 130.387C36.4066 134.367 42.426 133.008 51.4551 132.814C60.4842 132.62 56.1153 130.969 67.0861 132.426C78.0569 133.882 90.7753 134.756 91.0666 134.756C94.95 134.367 67.2803 130.678 57.7657 126.989C55.824 126.115 51.5522 124.368 49.0279 120.193C48.3483 118.931 46.5037 115.727 47.5716 112.717C48.6396 109.707 51.9405 109.513 56.7949 105.63C59.8046 103.105 60.8725 101.261 62.6201 99.3191C71.6492 88.8337 87.2802 86.9891 86.9889 85.9211C86.6977 84.8532 83.2996 85.4357 78.3482 86.5036C61.0667 90.1929 49.9988 100.29 42.2318 107.571Z" fill="#247095"/>
<path d="M36.1154 98.8337C35.727 98.2512 43.2998 94.2706 43.8823 87.4745C44.1736 84.4648 42.9115 81.4551 44.5619 80.3872C46.2124 79.3192 46.0183 80.2901 47.7658 79.9988C50.6784 79.4163 53.0085 77.3775 53.8823 74.562C54.5619 71.9406 52.7172 69.9989 53.591 69.3193C54.4648 68.6397 55.4357 69.9018 57.1832 70.2901C58.9308 70.6785 62.9114 69.2222 65.824 67.4746C69.5133 65.2416 73.2997 63.2999 77.1832 61.5523C84.1734 58.8339 88.2511 57.1834 93.1054 57.6688C94.0763 57.7659 95.8238 58.0572 96.6005 57.0863C97.3772 56.1155 95.3384 50.9698 96.018 50.5815C96.6976 50.1932 98.0568 53.9795 101.843 55.4358C102.62 55.7271 102.717 55.63 111.552 55.4358C113.299 55.3388 114.076 55.3388 115.047 54.7562C116.018 54.1737 117.377 50.8728 118.348 50.5815C119.319 50.2902 120.29 52.8145 122.523 54.465C124.756 56.1155 127.863 55.8242 131.261 55.8242C134.659 55.8242 137.668 56.6009 144.561 58.0572C151.455 59.5135 156.989 61.6494 165.629 65.0475C168.736 66.2125 171.843 67.3775 174.95 68.7368C177.474 69.9018 180.095 70.8727 182.717 71.6494C184.95 72.1348 185.338 72.0377 186.6 72.6202C189.804 73.9795 189.707 76.0183 192.425 77.7658C195.144 79.5134 199.124 78.3484 200.192 80.3872C201.26 82.426 199.901 85.3386 198.056 85.9211C196.212 86.5037 192.717 79.2221 186.891 79.028C185.338 79.028 184.27 79.5134 182.717 78.7367C181.163 77.96 181.066 76.1154 179.222 74.8532C177.377 73.5911 174.27 75.3387 171.26 73.7853C168.251 72.2319 168.93 71.4552 167.862 69.9989C165.629 66.9892 162.425 65.9212 149.416 63.2028C142.426 61.7465 138.93 60.9698 136.406 60.5815C128.93 59.3193 121.358 58.6397 113.785 58.6397C104.465 58.6397 95.2413 59.9018 86.3093 62.5232C78.6395 64.8533 71.3579 68.0571 64.5619 72.2319C57.4745 76.4066 53.8823 78.5425 50.8726 83.1056C48.8338 86.1153 48.6396 87.96 45.8241 91.358C41.4552 96.6007 36.4066 99.2221 36.1154 98.8337Z" fill="#247095"/>
<path d="M41.5522 106.892C39.9988 105.532 18.2514 121.261 22.1348 130.872C23.2028 133.396 29.1251 134.076 32.2319 134.853C37.5717 136.212 37.7658 134.95 42.2318 137.28C43.5911 137.96 44.659 139.027 45.4357 140.387C49.9017 145.824 50.3871 147.765 53.8823 153.299C57.3774 158.833 50.6784 138.154 45.9211 135.532C38.7367 131.649 34.8532 132.814 32.8144 129.61C28.5426 122.814 42.9115 108.154 41.5522 106.892Z" fill="#247095"/>
<path d="M141.746 84.4646C143.299 85.8239 144.853 87.8627 154.659 88.7365C162.911 89.5132 157.474 90.3869 166.115 95.1442C167.474 95.9209 169.222 96.8918 169.513 98.5423C169.804 100.193 168.445 102.134 166.6 104.853C164.756 107.571 160.484 111.066 160.29 111.261C160.095 111.455 166.697 106.406 169.222 106.115C170.095 106.018 170.678 105.435 174.561 108.251C175.823 109.222 177.28 109.999 178.736 110.678L180.872 111.358C184.173 112.814 185.047 116.309 185.726 116.018C186.406 115.727 186.309 113.882 185.532 112.134C184.755 110.387 182.62 109.125 182.814 108.736C183.008 108.348 185.144 109.804 186.697 108.931C188.251 108.057 187.765 106.6 188.93 106.309C190.095 106.018 191.163 108.154 192.328 107.766C193.493 107.377 192.814 106.795 193.979 105.338C195.144 103.882 195.338 103.688 196.212 103.591C197.085 103.494 197.668 105.63 199.124 106.018C200.581 106.406 202.231 104.853 204.464 103.397C208.445 100.581 210.192 106.115 212.716 103.979C215.241 101.843 219.318 106.212 219.318 105.338C219.318 104.465 212.522 96.6976 209.416 98.4452C207.765 99.2219 206.503 99.416 205.435 98.251C204.367 97.0859 205.629 95.0471 204.658 94.3675C203.687 93.6879 201.94 95.7267 198.833 96.7947C195.726 97.8626 194.561 97.0859 189.61 97.0859C184.658 97.0859 183.008 98.3481 179.901 98.0568C173.688 97.4743 171.746 92.1345 166.309 88.0569C154.853 79.6103 140.29 83.1054 141.746 84.4646Z" fill="#247095"/>
<path d="M102.426 81.9403C101.455 83.2024 100.775 84.6587 100.484 86.2121C100.29 87.2801 99.9985 89.5131 101.164 90.6781C102.329 91.8432 107.668 91.3577 107.668 91.3577C107.668 91.3577 107.474 96.5033 108.639 96.8917C109.804 97.28 109.707 95.7266 112.134 93.0082C114.562 90.2898 114.659 90.1927 115.727 89.7072C116.795 89.2218 119.513 90.1927 120.581 89.416C121.649 88.6393 121.649 82.8141 118.639 79.9986C115.629 77.183 105.727 77.9597 102.426 81.9403Z" fill="#AAC8C8"/>
<path d="M174.27 90.5809C172.911 91.2605 169.124 85.4353 164.076 80.3868C152.134 68.1538 138.93 65.9208 139.319 64.8529C139.707 63.7849 152.717 66.9888 164.076 74.0761C167.28 76.0179 171.843 79.1246 173.785 84.7557C174.561 86.6974 175.241 89.9984 174.27 90.5809Z" fill="#247095"/>
<path d="M36.892 83.7852C36.892 84.9502 35.727 87.8628 40.2901 79.7075C47.1832 67.3775 60.8725 64.4649 67.4744 61.5523C78.2511 56.8921 85.0472 56.0183 84.9501 55.7271C84.853 55.4358 62.1346 55.9212 45.5328 69.9988C37.96 76.3095 36.9891 83.0085 36.892 83.7852Z" fill="#247095"/>
<path d="M28.6397 130.192C29.1252 130.29 29.8048 126.503 33.0086 121.649C34.9504 118.736 36.9892 115.629 40.7756 113.882C44.562 112.134 44.0765 113.202 45.6299 111.94C47.1833 110.678 47.0862 106.989 49.5134 105.144C51.9406 103.299 53.2998 104.853 55.8241 103.202C58.3483 101.552 57.4745 100.581 59.2221 98.348C60.9697 96.115 64.2706 95.6295 72.3288 91.0665C75.9211 89.0276 75.2415 89.0276 77.1832 88.1539C81.8434 86.0179 85.6298 86.0179 89.8045 85.7267C97.086 85.0471 96.7948 84.0762 103.882 83.2995C110.969 82.5228 120.29 83.2024 131.066 84.7558C138.057 85.6296 140.969 87.4742 146.989 87.2801H153.688C160.095 87.3772 161.843 90.9694 163.105 92.0373C166.697 95.1441 170.872 97.5713 175.241 99.3189C178.445 100.387 184.076 102.426 190.289 100.29C194.755 98.6392 200.192 94.6587 200.969 89.1247C201.454 86.0179 200.484 82.8141 199.513 82.8141C198.542 82.8141 198.348 89.7072 193.688 93.0082C189.027 96.3092 181.066 94.1732 180.581 92.0373C180.095 89.9014 190.192 88.2509 193.202 80.3869C194.95 75.7267 193.688 70.7753 192.717 70.6782C191.746 70.5811 191.552 76.4063 186.891 81.8432C183.59 85.7267 178.445 88.9305 176.697 87.6684C174.95 86.4063 181.357 72.0374 179.61 71.1636C177.862 70.2899 173.591 77.7656 171.843 76.9889C170.095 76.2122 172.425 67.2802 172.328 67.2802C172.231 67.2802 172.328 72.5229 168.93 75.0471C167.959 75.7267 167.571 75.6296 165.047 76.5034C159.901 78.251 157.765 80.2898 157.28 79.9015C156.794 79.5131 162.717 74.7559 165.047 67.2802C167.377 59.8045 165.338 53.688 164.561 53.688C163.785 53.688 165.047 61.6491 160.193 69.2219C156.697 74.5617 150.581 78.7364 148.542 77.4743C146.503 76.2122 148.154 71.7462 148.542 70.1928C150.775 61.7462 156.989 57.3773 156.309 56.6006C155.629 55.8239 151.843 57.4744 148.542 60.9695C142.911 66.7947 144.367 73.1054 140.29 74.5617C137.863 75.3384 134.562 74.0762 133.008 72.1345C131.455 70.1928 133.397 65.2413 133.494 56.6006C133.591 49.5132 131.94 44.3676 131.552 44.4647C131.164 44.5618 132.911 53.2026 129.61 63.3967C129.513 63.8821 126.6 72.4258 124.27 72.1345C121.94 71.8432 121.261 58.9307 119.901 59.0278C118.542 59.1249 119.513 65.5326 115.533 72.1345C114.27 74.1733 112.134 77.7656 110.193 77.4743C105.435 76.6976 105.435 53.1055 104.368 53.2026C103.3 53.2996 103.008 64.3676 102.911 65.3384C102.62 71.1636 102.717 73.2996 100.969 75.0471C99.2219 76.7947 95.7268 77.183 93.2025 76.5034C83.7851 73.6879 82.2317 54.2705 80.5812 54.6589C78.9308 55.0472 79.7075 59.9986 80.5812 64.853C81.455 69.7073 82.3288 70.484 83.0084 75.5326C83.688 80.5811 82.9113 82.0374 82.523 82.3286C82.1346 82.6199 77.7657 82.0374 75.7269 80.3869C70.3871 75.9209 70.3871 67.1831 70.3871 67.2802C70.3871 67.3772 74.3677 82.8141 71.358 84.2704C68.3483 85.7267 65.1444 80.484 62.6202 76.5034C58.5425 69.8044 58.8338 63.785 58.2512 63.8821C57.6687 63.9792 55.4357 73.4937 60.193 80.8723C61.9405 83.4937 63.9794 84.8529 63.591 87.183C62.9114 90.0956 60.2901 92.0373 57.2804 92.0373C53.5911 91.4548 51.5522 85.4354 50.9697 85.7267C50.3872 86.0179 54.7561 92.3286 52.426 96.8917C51.0668 99.3189 48.4455 100.872 45.6299 100.775C42.8144 100.484 41.0669 97.7655 40.2902 98.348C39.5135 98.9305 42.1348 102.329 40.7756 104.659C39.4164 106.989 36.6979 105.532 35.4358 107.571C34.1737 109.61 36.3096 110.581 35.9212 113.396C35.5329 116.212 32.4261 117.183 30.096 121.649C27.7659 126.115 28.1543 129.998 28.6397 130.192Z" fill="#247095"/>
<path d="M64.0764 145.435C63.1056 146.309 62.523 147.571 62.6201 148.833C62.7172 151.26 65.4357 153.59 71.8434 156.6C79.9987 160.289 86.6977 161.649 94.1734 163.396C106.989 166.212 105.338 166.309 109.61 167.085C127.474 170.192 144.659 166.6 144.659 164.852C144.659 163.105 99.9015 167.765 78.6395 151.746C76.4065 149.998 67.6686 142.911 64.0764 145.435Z" fill="#AAC8C8"/>
<path d="M53.9793 142.717C53.6881 143.591 62.6201 154.658 72.8142 158.057C79.4161 160.095 91.552 165.144 107.765 167.28C130.581 170.192 150.581 166.891 150.484 165.823C150.387 164.756 131.358 166.697 102.911 161.94C77.3773 157.571 54.3677 141.649 53.9793 142.717Z" fill="#247095"/>
<path d="M45.6299 135.63C46.6008 136.018 55.2415 142.329 67.6686 145.824C75.4356 147.96 83.2996 149.61 91.2608 150.775C100.29 152.134 106.892 153.202 116.018 153.688C118.736 153.785 127.086 153.397 143.688 152.717C153.396 152.232 160.095 151.843 166.503 147.377C166.989 146.989 171.746 143.591 171.163 142.134C170.581 140.678 168.542 140.969 157.28 143.494C147.571 145.63 142.523 147.28 138.833 148.251C132.329 149.804 124.853 149.222 110.193 147.863C98.4452 146.795 86.7948 145.241 75.2414 143.008C56.5036 139.319 42.1348 134.368 45.6299 135.63Z" fill="#247095"/>
<path d="M34.8533 126.018C35.5329 124.173 37.4746 123.202 39.3193 123.688C40.5814 124.173 40.2901 125.435 41.6493 126.989C43.0086 128.542 47.5716 128.639 47.7658 129.901C47.96 131.163 45.4357 132.523 42.9115 132.814C40.5814 132.911 38.3484 131.94 36.795 130.193C35.8241 129.222 34.3678 127.668 34.8533 126.018Z" fill="#AAC8C8"/>
<path d="M81.0667 139.125C81.1637 138.445 91.3579 140.387 106.795 139.125C123.882 137.571 132.426 136.794 135.921 135.726C139.416 134.659 142.523 133.396 144.173 135.241C145.824 137.086 144.853 139.61 143.688 141.552C141.163 145.532 134.367 146.212 103.979 142.62C96.1151 141.649 81.0667 139.804 81.0667 139.125Z" fill="#247095"/>
<path d="M92.5228 135.726C91.8432 135.921 91.9403 138.056 92.2316 139.61C92.5228 141.163 92.9112 140.872 93.2024 142.231C93.4937 143.59 93.2995 145.921 93.5908 146.018C93.882 146.115 95.8238 143.299 95.4354 140.289C95.0471 137.28 93.2024 135.435 92.5228 135.726Z" fill="#247095"/>
<path d="M101.746 138.348C100.775 138.639 102.134 147.183 103.202 147.183C104.27 147.183 104.465 144.464 103.882 142.037C103.299 139.61 102.232 138.154 101.746 138.348Z" fill="#247095"/>
<path d="M114.076 137.668C113.591 137.571 112.62 139.901 112.911 142.232C113.202 144.562 115.824 147.571 116.309 147.377C116.795 147.183 116.018 146.309 115.338 143.494C114.659 140.678 114.562 137.668 114.076 137.668Z" fill="#247095"/>
<path d="M121.163 137.668C120.29 137.862 119.901 139.61 120.387 140.775C120.872 141.94 121.455 141.649 122.329 142.717C123.202 143.785 123.591 145.921 123.785 145.921C123.979 145.921 125.144 140.29 122.523 138.154C122.231 137.765 121.649 137.571 121.163 137.668Z" fill="#247095"/>
<path d="M129.125 135.726C128.445 135.921 128.154 137.474 128.639 138.639C129.125 139.804 130.096 139.416 131.066 140.289C132.037 141.163 132.426 145.629 132.523 145.629C132.62 145.629 133.785 141.357 131.552 137.862C131.455 137.668 130.096 135.435 129.125 135.726Z" fill="#247095"/>
<path d="M135.921 135.727C135.629 134.95 138.057 133.299 138.833 132.814C140.193 131.649 141.94 130.872 143.688 130.581C145.338 130.387 145.921 130.678 146.6 130.096C147.28 129.513 146.989 127.766 147.862 127.183C148.736 126.6 150.484 127.086 150.775 127.96C151.066 128.833 149.416 129.416 148.542 131.843C148.154 132.62 148.154 133.494 148.348 134.27C148.833 135.532 150.484 135.532 151.746 136.406C153.008 137.28 155.144 142.523 154.367 143.008C153.591 143.494 150.581 136.406 144.173 135.241C139.998 134.367 136.309 136.503 135.921 135.727Z" fill="#247095"/>
<path d="M154.173 127.96C153.688 127.474 154.561 125.241 156.309 124.27C158.057 123.3 161.649 124.27 163.105 125.047C166.989 126.795 169.222 129.999 168.93 130.387C168.639 130.775 163.396 124.756 158.251 126.018C156.018 126.503 154.561 128.348 154.173 127.96Z" fill="#247095"/>
<path d="M164.853 123.785C163.979 123.105 164.756 120.775 165.047 119.707C165.435 118.154 166.309 116.697 167.474 115.532C170.29 113.105 174.173 113.688 176.212 114.076C178.833 114.561 181.26 115.726 183.299 117.474C184.173 118.154 184.853 118.833 184.755 119.416C184.658 119.998 182.134 119.804 181.066 121.358C179.998 122.911 180.969 123.591 179.901 124.561C179.513 124.853 178.93 125.047 178.445 125.047C177.183 124.95 177.086 123.202 175.629 122.134C174.756 121.649 173.688 121.358 172.62 121.358C168.348 121.26 166.018 124.658 164.853 123.785Z" fill="#247095"/>
<path d="M40.7756 113.882C39.5134 114.076 38.5426 116.892 39.028 119.222C39.8047 123.008 44.562 125.629 45.8241 124.659C47.0862 123.688 45.4357 119.707 44.3678 117.668C43.2998 115.629 42.2319 113.591 40.7756 113.882Z" fill="#247095"/>
<path d="M78.4453 148.542C78.7365 147.474 90.6782 151.357 111.649 152.717C137.571 154.367 153.591 150.581 153.785 151.94C153.979 153.299 136.989 159.804 116.503 159.027C96.018 158.251 78.0569 149.901 78.4453 148.542Z" fill="#247095"/>
<path d="M106.309 102.911C103.979 99.9015 97.8627 100.969 94.6588 102.232C93.1054 102.814 90.387 103.882 89.8045 106.115C89.222 108.348 90.4841 108.931 92.2317 112.426C93.9792 115.921 94.853 117.474 94.9501 117.474C95.0472 117.474 99.5132 121.649 106.309 123.299C111.358 124.464 117.474 125.921 120.872 122.814C122.329 121.552 123.008 119.61 125.241 119.222C127.474 118.833 127.377 119.707 129.125 119.707C133.202 119.513 136.697 114.464 137.863 112.62C141.261 107.377 144.076 98.6393 140.775 95.9209C139.513 94.8529 137.765 95.0471 134.95 95.4355C132.134 95.8238 126.989 96.4063 125.727 99.8044C124.465 103.202 128.154 104.173 127.183 107.571C126.212 110.969 123.591 112.62 120.678 113.105C119.222 113.299 118.348 113.008 116.989 113.882C115.63 114.756 115.435 116.212 114.367 116.309C113.3 116.406 113.202 115.727 111.164 113.882L108.736 111.649C106.115 108.736 108.348 105.435 106.309 102.911Z" fill="#AAC8C8"/>
</g>
</svg>
