<svg xmlns="http://www.w3.org/2000/svg" viewBox="0 0 60 60"><defs><style>.cls-1{fill:none;}.cls-2{fill:#595055;}.cls-3{fill:#fff;}.cls-4{fill:#b8bdcc;}.cls-5{fill:#e6dae9;}.cls-6{fill:#311f2d;}.cls-7{fill:#443648;}.cls-8{fill:#60366c;}.cls-9{fill:#e4d3e9;}.cls-10{fill:#1e0009;}.cls-11{fill:#56003f;}.cls-12{fill:#bcbcd1;}.cls-13{fill:#e7e2e9;}.cls-14{fill:#6c6b86;}</style></defs><g id="Слой_1" data-name="Слой 1"><path class="cls-1" d="M9.41,24.78c.07-.3-.36-3.59,1.84-6,.31-.33,4.35-4.13,8.47-5.31,2.71-.81,3.62.4,4.68-.26s1.14-1.11,2.15-1.26.93.18,2.15.38c1.69.25,2.12-.23,4.17,0a13.51,13.51,0,0,1,1.74.3l4.08.71c4.93.78,5.76,3.94,8.57,5.76s2.45,1.29,2.35,1.78c-.38,1.54-9.84-3.54-20.56-.46C22.4,22.33,10.24,36.16,6.6,34.59,3.82,33.4,8.72,27.66,9.41,24.78Z"/><path class="cls-2" d="M18.51,22.83c-.18-1,2.5-2.55,4.25-3.16S25,19.22,29,18.28C30,18,31.61,17.62,31.66,17s-.89-.71-1-1.7a1.38,1.38,0,0,1,.25-1.19,9.21,9.21,0,0,1,3.74-.63c4.83,1.14,4.4.36,8.63,2.18.86.35,4.57,4.24,7.08,5.31,3,1.26,4.22,4.7,6.09,6.09s-4.35-.41-4.91-.78C43.87,21.21,19.06,25.69,18.51,22.83Z"/><path class="cls-3" d="M22.3,22.28c-3.74,1.13-5.13,3.08-5.49,3.61-1,1.57-1.89,4.15-1.08,6.25,1.72,4.5,10.64,5.63,17.14,3.61,4-1.26,10.11-4.7,9.73-8.09C42.12,23.16,30.24,19.87,22.3,22.28Z"/><path class="cls-4" d="M22.35,34.61c-1.16-.3-2.91-.27-4.63-2.47a4.49,4.49,0,0,1-1-3.54c.23-1,1-1.67,4.18-3.54a33,33,0,0,1,4.95-2.68C30.21,21,36.36,22,38,25.06c.36.7.68,1.89,1.27,1.89s.75-1.49,1.64-1.64,1.74.81,1.9,1.77-.38,1.64-1.14,2.86c-.41.68-.58.83-.51.93s5.11-.81,5.57-2.91c.53-2.55-4.43-6.59-9.61-7.58-1.85-.35-3.69-.1-7.39.38-4.95.66-7.81,1-11.12,2.7-1.47.74-7.23,3.64-6.83,6.81.28,2,3,3.28,4,3.74C19,35.5,22.71,34.72,22.35,34.61Z"/><path class="cls-1" d="M18.05,43.16C20,44.3,22,44,27.91,43.67c1.82-.1,2.79.2,4.68.25A18.23,18.23,0,0,0,39,43.29c.76-.33-1.57-1.22-1.26-2,.15-.4.83-.63,1.87-1.49a5.58,5.58,0,0,1,2.65-1.39c1.67-.78,1.37-1,3.44-2.43,1-.7,1.11-.48,2.53-1.39S50.9,32.87,50.92,32c0-1.34-2.32-2.31-2.15-2.66a7.26,7.26,0,0,1,3.59-1.74c4.76-.21,5,1.82,5.14,1,.43-2.07-4.4-2.55-8.35-2.32a15.84,15.84,0,0,0-4.93.86,26.07,26.07,0,0,0-3,2.12,62.29,62.29,0,0,1-6,3.44A24.21,24.21,0,0,1,25.41,35a24.46,24.46,0,0,0,8-.78,26.27,26.27,0,0,0,2.7-1c4.86-2-7.43,2.05-10.85,1.69s-6.14-1.24-12.79-1.69c-1.49-.13-4.27-.25-4.47.25-.43,1.14,3.84,2.15,4.39,3.37C14.34,41.06,15.25,41.52,18.05,43.16Z"/><path class="cls-5" d="M35.6,13.75c-2-.45-2.78-1.69-3.79-1.49s-1.22,2.38-2.94,3.11c-.8.36-.4,2.58.13,2.91s1.27-.73,2.78-.76,1.49.74,2.66.71c1.59,0,3.16-1.44,3-2.1S37.88,14.29,35.6,13.75Z"/><path class="cls-6" d="M9.41,25.74c-.11-.15,1.87-1.19,2-3,.07-.78-.25-1.57.18-1.84s.37,0,.83-.11A2,2,0,0,0,14,19.42c.18-.68-.3-1.19-.07-1.37s.48.15.93.26a4.26,4.26,0,0,0,2.25-.74,28.67,28.67,0,0,1,3-1.54c1.82-.71,2.88-1.14,4.15-1,.25,0,.71.1.91-.15s-.33-1.6-.15-1.7.53.89,1.51,1.27a11,11,0,0,0,2.53,0,1.8,1.8,0,0,0,.91-.18c.25-.15.61-1,.86-1.09s.51.58,1.09,1a3.8,3.8,0,0,0,2.27.36,17.63,17.63,0,0,1,3.47.58,34,34,0,0,1,5.49,1.82c.8.3,1.61.61,2.42,1a15.05,15.05,0,0,0,2,.76,4.42,4.42,0,0,1,1,.25c.83.36.81.89,1.51,1.34s1.75.15,2,.69a1.11,1.11,0,0,1-.56,1.44c-.48.15-1.39-1.75-2.91-1.8-.4,0-.68.13-1.08-.07s-.43-.69-.91-1-1.29.13-2.08-.27-.61-.61-.88-1c-.58-.78-1.42-1.06-4.81-1.77-1.82-.38-2.73-.58-3.39-.68a35.13,35.13,0,0,0-5.89-.51,25.42,25.42,0,0,0-7.15,1,24.25,24.25,0,0,0-5.67,2.53C15,19.9,14,20.46,13.25,21.64a16.06,16.06,0,0,1-1.32,2.15A5.62,5.62,0,0,1,9.41,25.74Z"/><path class="cls-7" d="M10.82,27.84c-.4-.36-6.07,3.74-5.06,6.24.28.66,1.83.84,2.63,1,1.4.35,1.45,0,2.61.63a2,2,0,0,1,.83.81A23.56,23.56,0,0,1,14,39.92C14.94,41.37,13.2,36,12,35.3c-1.87-1-2.88-.71-3.41-1.55C7.43,32,11.18,28.17,10.82,27.84Z"/><path class="cls-6" d="M45.39,23.59c-.36.18-1.34-1.34-2.66-2.65-3.11-3.19-6.55-3.77-6.45-4.05s3.49.56,6.45,2.4a5.45,5.45,0,0,1,2.53,2.78C45.46,22.58,45.64,23.44,45.39,23.59Z"/><path class="cls-6" d="M9.61,21.82c0,.3-.31,1.06.88-1.06,1.8-3.21,5.36-4,7.08-4.73a34.51,34.51,0,0,1,4.55-1.52,17.28,17.28,0,0,0-10.26,3.72A5.89,5.89,0,0,0,9.61,21.82Z"/><path class="cls-8" d="M16.69,37.88a1,1,0,0,0-.38.88c0,.63.73,1.24,2.4,2a28.17,28.17,0,0,0,5.82,1.77c3.33.74,2.9.76,4,1,4.65.81,9.12-.12,9.12-.58S26,43.69,20.48,39.52C19.9,39.06,17.62,37.22,16.69,37.88Z"/><path class="cls-6" d="M14.06,37.17a10.2,10.2,0,0,0,4.9,4,46.6,46.6,0,0,0,9.11,2.41c5.94.75,11.15-.11,11.12-.38s-5,.22-12.39-1C20.15,41,14.16,36.89,14.06,37.17Z"/><path class="cls-6" d="M11.88,35.32A22.73,22.73,0,0,0,17.62,38a53.74,53.74,0,0,0,6.15,1.29,63.52,63.52,0,0,0,6.44.76c.71,0,2.89-.08,7.21-.26,2.53-.12,4.27-.23,5.94-1.39.13-.1,1.37-1,1.22-1.36s-.69-.31-3.62.35c-2.53.56-3.84,1-4.8,1.24-1.7.4-3.64.25-7.46-.1a89.31,89.31,0,0,1-9.1-1.27C14.72,36.28,11,35,11.88,35.32Z"/><path class="cls-9" d="M21.11,36.23c0-.17,2.68.33,6.7,0a59.42,59.42,0,0,0,7.59-.88c.91-.28,1.72-.61,2.15-.13s.17,1.14-.13,1.64c-.66,1-2.43,1.22-10.34.28A47.52,47.52,0,0,1,21.11,36.23Z"/><path class="cls-10" d="M24.1,35.35c-.18,0-.16.6-.08,1s.18.33.25.68,0,1,.1,1a1.8,1.8,0,0,0,.48-1.49C24.75,35.75,24.27,35.27,24.1,35.35Z"/><path class="cls-10" d="M26.5,36c-.25.08.1,2.3.38,2.3s.33-.71.17-1.34S26.62,36,26.5,36Z"/><path class="cls-10" d="M29.71,35.85c-.13,0-.38.58-.3,1.19s.75,1.39.88,1.34-.08-.28-.25-1S29.84,35.85,29.71,35.85Z"/><path class="cls-10" d="M31.56,35.85c-.23,0-.33.51-.21.81s.28.23.51.51.33.83.38.83.35-1.46-.33-2A.39.39,0,0,0,31.56,35.85Z"/><path class="cls-10" d="M33.63,35.35c-.18,0-.25.45-.13.76s.38.2.63.43.36,1.39.38,1.39a2.58,2.58,0,0,0-.25-2S33.88,35.27,33.63,35.35Z"/><path class="cls-10" d="M35.4,35.35c-.08-.2.55-.63.76-.76A2.6,2.6,0,0,1,37.42,34c.43,0,.58,0,.76-.13s.1-.61.33-.76a.59.59,0,0,1,.76.2c.07.23-.36.38-.58,1a.87.87,0,0,0-.06.63c.13.33.56.33.89.55s.88,1.6.68,1.72-1-1.72-2.65-2C36.46,35,35.5,35.55,35.4,35.35Z"/><path class="cls-10" d="M40.15,33.32c-.12-.12.1-.7.56-1a2.36,2.36,0,0,1,1.77.21c1,.45,1.59,1.29,1.51,1.39s-1.44-1.47-2.78-1.14C40.63,33,40.25,33.43,40.15,33.32Z"/><path class="cls-10" d="M42.93,32.24c-.22-.18,0-.79,0-1.06a2.29,2.29,0,0,1,.64-1.09,2.67,2.67,0,0,1,2.27-.38,4,4,0,0,1,1.85.88c.22.18.4.36.38.51s-.69.1-1,.51,0,.58-.31.83a.65.65,0,0,1-.38.13c-.33,0-.35-.48-.73-.76a1.62,1.62,0,0,0-.78-.2C43.84,31.58,43.24,32.47,42.93,32.24Z"/><path class="cls-9" d="M20.43,38.69c.08-.28,3.19.73,8.65,1.08,6.75.43,10.92-.55,11-.2s-4.37,2-9.71,1.85S20.33,39,20.43,38.69Z"/></g><g id="угол-правый"><path class="cls-11" d="M36.92,22c.4.35.8.88,3.36,1.11,2.15.2.73.43,3,1.67.36.2.81.45.89.88s-.28.94-.76,1.65A10.5,10.5,0,0,1,41.74,29a9.34,9.34,0,0,1,2.33-1.34c.23,0,.38-.18,1.39.55a5.62,5.62,0,0,0,1.09.63l.55.18c.86.38,1.09,1.29,1.27,1.21s.15-.55,0-1-.76-.78-.71-.88.61.28,1,.05.28-.61.58-.68.59.48.89.38.12-.26.43-.64.35-.43.58-.45.38.53.76.63.81-.3,1.39-.68c1-.74,1.49.71,2.15.15s1.72.58,1.72.35-1.77-2.25-2.58-1.79c-.43.2-.76.25-1-.05s0-.84-.2-1-.71.35-1.52.63-1.11.07-2.4.07-1.72.33-2.53.26c-1.62-.15-2.12-1.55-3.54-2.61C40.33,20.73,36.54,21.64,36.92,22Z"/></g><g id="яблоко"><path d="M22.3,22.28a4.68,4.68,0,0,0-1,3.21c-.18,3.23,2.1,5.66,3,6.57a9.33,9.33,0,0,0,2.3,1.9c3.64,1.89,7.61,0,8.17-.31A7.7,7.7,0,0,0,37.93,31a9.63,9.63,0,0,0,1.24-4.81c.15-2.3.22-3.43-.51-4.34-1.19-1.45-3.62-1.34-5.06-1.29a11.48,11.48,0,0,0-2.7.43C25.64,21.9,23.74,20.81,22.3,22.28Z"/></g><g id="угол-внутренний-девый"><path class="cls-11" d="M11,28c-3,2.8-3.16,4.07-3,4.77A2.33,2.33,0,0,0,8.55,34c.93,1,2.5.68,4.85.63s1.21-.48,4.07-.1,6.17.6,6.25.6c1-.1-6.2-1.06-8.68-2a4.74,4.74,0,0,1-2.27-1.77,2.48,2.48,0,0,1-.38-1.94c.28-.79,1.14-.84,2.4-1.85a12.37,12.37,0,0,0,1.52-1.64c2.35-2.73,6.42-3.22,6.34-3.49s-1-.13-2.25.15A19.3,19.3,0,0,0,11,28Z"/></g><g id="яблоко-блик-верх"><path class="cls-12" d="M26.68,21.34a2.62,2.62,0,0,0-.51,1.11,1.39,1.39,0,0,0,.18,1.17c.3.3,1.69.17,1.69.17s-.05,1.34.25,1.44.28-.3.91-1,.66-.73.94-.86,1,.13,1.26-.07a2.33,2.33,0,0,0-.5-2.46C30.11,20.1,27.53,20.3,26.68,21.34Z"/></g><g id="веко-верх"><path class="cls-10" d="M7.46,33.91c.13,0,.3-1,1.14-2.23a4.91,4.91,0,0,1,2-2c1-.46.86-.18,1.26-.51s.38-1.29,1-1.77,1-.07,1.64-.5.43-.69.88-1.27,1.32-.7,3.42-1.89c.93-.53.76-.53,1.26-.76a8.22,8.22,0,0,1,3.29-.63c1.89-.18,1.82-.43,3.66-.64a30.34,30.34,0,0,1,7.08.38c1.82.23,2.58.71,4.15.66H40A3,3,0,0,1,42.48,24a11.18,11.18,0,0,0,3.16,1.9,5.91,5.91,0,0,0,3.92.25,4.14,4.14,0,0,0,2.78-2.91c.13-.81-.13-1.64-.38-1.64s-.3,1.79-1.52,2.65S47.16,24.53,47,24s2.5-1,3.29-3c.45-1.22.12-2.51-.13-2.53s-.3,1.49-1.52,2.9c-.86,1-2.2,1.85-2.65,1.52s1.21-4.07.76-4.3-1.57,1.72-2,1.52.16-2.53.13-2.53a2.9,2.9,0,0,1-.89,2,3.38,3.38,0,0,1-1,.38c-1.34.46-1.89,1-2,.89s1.42-1.34,2-3.29S43.06,14,42.86,14,43,16.06,41.72,18c-.91,1.39-2.5,2.48-3,2.15s-.11-1.49,0-1.9c.58-2.2,2.19-3.34,2-3.54s-1.17.23-2,1.14C37.22,17.4,37.6,19,36.54,19.42a1.94,1.94,0,0,1-1.9-.63c-.4-.51.1-1.8.13-4a6.85,6.85,0,0,0-.51-3.16,14.18,14.18,0,0,1-.51,4.93c0,.13-.78,2.35-1.39,2.28s-.78-3.44-1.13-3.42-.1,1.7-1.14,3.42c-.33.53-.89,1.46-1.39,1.39-1.24-.21-1.24-6.35-1.52-6.32s-.35,2.9-.38,3.16c-.07,1.51-.05,2.07-.5,2.52a2.26,2.26,0,0,1-2,.38c-2.45-.73-2.85-5.79-3.28-5.68s-.23,1.39,0,2.65.45,1.47.63,2.78,0,1.7-.13,1.77a2.94,2.94,0,0,1-1.77-.5,5,5,0,0,1-1.39-3.42s1,4.05.25,4.43-1.61-1-2.27-2a11.89,11.89,0,0,1-1.14-3.28,5.27,5.27,0,0,0,.51,4.42c.45.68,1,1,.88,1.65A1.66,1.66,0,0,1,14.92,24c-1-.15-1.49-1.72-1.65-1.64s1,1.72.38,2.9a2,2,0,0,1-1.77,1c-.73-.08-1.18-.79-1.39-.64s.48,1,.13,1.65-1.06.22-1.39.76.23.78.13,1.51-.91,1-1.52,2.15A2.77,2.77,0,0,0,7.46,33.91Z"/></g><g id="блик-угол-низ"><path class="cls-13" d="M9.08,32.82a1,1,0,0,1,1.16-.61c.33.13.25.46.61.86s1.54.43,1.59.76-.61.68-1.26.76a2.07,2.07,0,0,1-1.6-.68C9.33,33.65,9,33.25,9.08,32.82Z"/></g><g id="яблоко-низ"><path id="яблоко-низ-2" data-name="яблоко-низ" class="cls-14" d="M27.69,26.8c-.61-.78-2.2-.5-3-.18-.4.16-1.11.43-1.26,1s.18.73.63,1.64a9.93,9.93,0,0,0,.71,1.31,7.58,7.58,0,0,0,3,1.52c1.31.3,2.9.68,3.79-.13.38-.32.56-.83,1.14-.93s.55.13,1,.13c1.06-.05,2-1.37,2.27-1.85.89-1.37,1.62-3.64.76-4.35-.33-.28-.78-.23-1.51-.13s-2.08.26-2.41,1.14.64,1.14.38,2a2,2,0,0,1-1.69,1.44c-.38.05-.61,0-1,.2s-.41.61-.68.63-.31-.15-.84-.63l-.63-.58C27.64,28.32,28.22,27.46,27.69,26.8Z"/></g><g id="блик-угол-верх"><path class="cls-9" d="M10.62,29.66c-.33.05-.58.78-.46,1.39.21,1,1.45,1.67,1.77,1.42s-.1-1.29-.37-1.83S11,29.58,10.62,29.66Z"/></g></svg>