<svg xmlns="http://www.w3.org/2000/svg" viewBox="0 0 51.72 32.42"><g id="Слой_2" data-name="Слой 2"><g id="Слой_1-2" data-name="Слой 1"><path d="M16.72,10.8a10,10,0,0,0-5.5,3.6c-1,1.6-1.9,4.1-1.1,6.2,1.7,4.5,10.6,5.6,17.1,3.6,4-1.3,10.1-4.7,9.7-8.1-.4-4.4-12.3-7.7-20.2-5.3Z" style="fill:#fff"/><path d="M16.72,23.1c-1.2-.3-2.9-.3-4.6-2.5a4.3,4.3,0,0,1-1-3.5c.2-1,1-1.7,4.2-3.5,2.8-1.6,4.2-2.5,5-2.7,4.4-1.3,10.5-.4,12.1,2.7.4.7.7,1.9,1.3,1.9s.8-1.5,1.6-1.6,1.7.8,1.9,1.8-.4,1.6-1.1,2.9c-.4.7-.6.8-.5.9s5.1-.8,5.6-2.9c.5-2.6-4.4-6.6-9.6-7.6-1.8-.4-3.7-.1-7.4.4-5,.7-7.8,1-11.1,2.7-1.5.7-7.2,3.6-6.8,6.8.3,2,3,3.3,4,3.7C13.42,24,17.12,23.2,16.72,23.1Z" style="fill:#b8bdcc"/><path d="M16.72,10.8a4.25,4.25,0,0,0-1,3.2c-.2,3.2,2.1,5.7,3,6.6A8.34,8.34,0,0,0,21,22.5c3.6,1.9,7.6,0,8.2-.3a7.63,7.63,0,0,0,3.2-2.7,8.8,8.8,0,0,0,1.2-4.8c.2-2.3.2-3.4-.5-4.3C31.92,9,29.52,9.1,28,9.1a19.34,19.34,0,0,0-2.7.4c-5.3.9-7.2-.2-8.6,1.3Z"/><path d="M5.42,16.5c-3,2.8-3.2,4.1-3,4.8A3.38,3.38,0,0,0,3,22.5c.9,1,2.5.7,4.9.6s1.2-.5,4.1-.1,6.2.6,6.2.6c1-.1-6.2-1.1-8.7-2a4.81,4.81,0,0,1-2.3-1.8,2.28,2.28,0,0,1-.4-1.9c.3-.8,1.1-.8,2.4-1.8a10.16,10.16,0,0,0,1.5-1.6c2.4-2.7,6.4-3.2,6.3-3.5s-1-.1-2.2.2A18,18,0,0,0,5.42,16.5Z" style="fill:#56003f"/><path d="M3.82,14.3c-.1-.2,1.9-1.2,2-3,.1-.8-.3-1.6.2-1.8s.4,0,.8-.1a2,2,0,0,0,1.6-1.5c.2-.7-.3-1.2-.1-1.4s.5.2.9.3a4.3,4.3,0,0,0,2.2-.7,16.81,16.81,0,0,1,3-1.5,9.3,9.3,0,0,1,4.1-1c.3,0,.7.1.9-.2s-.2-1.6,0-1.7.5.9,1.5,1.3c.2.1.2.1,2.5,0,.5,0,.7,0,.9-.2s.6-1,.9-1.1.5.6,1.1,1a4.14,4.14,0,0,0,2.3.4,16.7,16.7,0,0,1,3.5.6,34.75,34.75,0,0,1,5.5,1.8,24.43,24.43,0,0,1,2.4,1,16.67,16.67,0,0,0,2,.8,2,2,0,0,1,1,.3c.8.4.8.9,1.5,1.3s1.7.2,2,.7a1,1,0,0,1-.6,1.4c-.5.2-1.4-1.7-2.9-1.8a2.08,2.08,0,0,1-1.1-.1c-.4-.2-.4-.7-.9-1s-1.3.1-2.1-.3-.6-.6-.9-1c-.6-.8-1.4-1.1-4.8-1.8-1.8-.4-2.7-.6-3.4-.7a38.08,38.08,0,0,0-5.9-.5,25.53,25.53,0,0,0-7.2,1A24.09,24.09,0,0,0,11,7.3a10.1,10.1,0,0,0-3.4,2.9,12,12,0,0,1-1.3,2.1A5.94,5.94,0,0,1,3.82,14.3Z" style="fill:#311f2d"/><path d="M5.22,16.3c-.4-.4-6.1,3.7-5.1,6.2.3.7,1.8.8,2.6,1,1.4.4,1.4,0,2.6.6a2.84,2.84,0,0,1,.9,1,17.91,17.91,0,0,1,2.2,3.4c.9,1.4-.8-3.9-2.1-4.6-1.9-1-2.9-.7-3.4-1.5C1.82,20.5,5.52,16.7,5.22,16.3Z" style="fill:#443648"/><path d="M31.32,10.5c.4.4.8.9,3.4,1.1,2.2.2.7.4,3,1.7a1.59,1.59,0,0,1,.9.9c.1.4-.3.9-.8,1.6a13,13,0,0,1-1.7,1.7s1.7-1.3,2.3-1.3c.2,0,.4-.2,1.4.6a2.38,2.38,0,0,0,1.1.6l.6.2c.9.4,1.1,1.3,1.3,1.2s.2-.6,0-1-.8-.8-.7-.9.6.3,1,0,.3-.6.6-.7.6.5.9.4.1-.3.4-.6a1.18,1.18,0,0,1,.6-.5c.2,0,.4.5.8.6s.8-.3,1.4-.7c1-.7,1.5.7,2.2.2s1.7.6,1.7.4-1.8-2.2-2.6-1.8c-.4.2-.8.3-1,0s0-.8-.2-1-.7.4-1.5.6-1.1.1-2.4.1-1.7.3-2.5.3c-1.6-.2-2.1-1.5-3.5-2.6C34.72,9.2,30.92,10.2,31.32,10.5Z" style="fill:#56003f"/><path d="M21,9.9a2.22,2.22,0,0,0-.5,1.1c0,.3-.1.9.2,1.2s1.7.2,1.7.2,0,1.3.3,1.4.3-.3.9-1a6.58,6.58,0,0,1,.9-.9c.3-.1,1,.1,1.3-.1s.3-1.7-.5-2.5S21.92,8.8,21,9.9Z" style="fill:#bcbcd1"/><path d="M39.82,12.1c-.4.2-1.3-1.3-2.7-2.7-3.1-3.2-6.5-3.8-6.4-4s3.5.6,6.4,2.4a5.39,5.39,0,0,1,2.5,2.8C39.82,11.1,40,12,39.82,12.1ZM4,10.3c0,.3-.3,1.1.9-1.1,1.8-3.2,5.4-4,7.1-4.7A34.44,34.44,0,0,1,16.62,3,17.77,17.77,0,0,0,6.32,6.7,6,6,0,0,0,4,10.3Z" style="fill:#311f2d"/><path d="M1.82,22.4a18.54,18.54,0,0,1,1.1-2.2,4.31,4.31,0,0,1,2-2c1-.5.9-.2,1.3-.5s.4-1.3,1-1.8,1-.1,1.7-.5.4-.7.9-1.3,1.3-.7,3.4-1.9c.9-.5.8-.5,1.3-.8a6.64,6.64,0,0,1,3.3-.6c1.9-.2,1.8-.4,3.7-.6a30.54,30.54,0,0,1,7.1.4c1.8.2,2.6.7,4.1.7h1.7a3.32,3.32,0,0,1,2.5,1.2,11.3,11.3,0,0,0,3.2,1.9,6,6,0,0,0,3.9.3,4.1,4.1,0,0,0,2.8-2.9c.1-.8-.1-1.6-.4-1.6s-.3,1.8-1.5,2.7-3.3.3-3.4-.3,2.5-1,3.3-3a2.62,2.62,0,0,0-.1-2.5c-.2,0-.3,1.5-1.5,2.9-.9,1-2.2,1.8-2.7,1.5s1.2-4.1.8-4.3-1.6,1.7-2,1.5c-.6-.3,0-2.7-.1-2.7s0,1.4-.9,2a3.36,3.36,0,0,1-1,.4c-1.3.5-1.9,1-2,.9a11,11,0,0,0,2-3.3c.6-1.9.1-3.5-.1-3.5s.1,2.1-1.1,4c-.9,1.4-2.5,2.5-3,2.1s-.1-1.5,0-1.9c.6-2.2,2.2-3.3,2-3.5s-1.2.2-2,1.1C31.62,5.8,32,7.5,31,7.8a2,2,0,0,1-1.9-.6c-.4-.5.1-1.8.1-4a7.83,7.83,0,0,0-.5-3.2,12.83,12.83,0,0,1-.5,4.9c0,.1-.8,2.4-1.4,2.3s-.8-3.4-1.1-3.4-.1,1.7-1.1,3.4c-.3.5-.9,1.5-1.4,1.4C22,8.4,22,2.3,21.72,2.3s-.5,3-.5,3.2c-.1,1.5,0,2.1-.5,2.5a2.39,2.39,0,0,1-2,.4c-2.5-.7-2.9-5.8-3.3-5.7s-.2,1.4,0,2.7A28,28,0,0,1,16,8.2c.1,1.3,0,1.7-.1,1.8a3.21,3.21,0,0,1-1.8-.5,5,5,0,0,1-1.4-3.4s1,4,.3,4.4-1.6-1-2.3-2a8.22,8.22,0,0,1-1.1-3.3c-.2,0-.7,2.5.5,4.4.5.7,1,1,.9,1.6a1.69,1.69,0,0,1-1.6,1.3c-1-.2-1.5-1.7-1.6-1.6s1,1.7.4,2.9a2.1,2.1,0,0,1-1.8,1c-.7-.1-1.2-.8-1.4-.6s.5,1,.1,1.6-1.1.2-1.4.8.2.8.1,1.5-.9,1-1.5,2.1a2.78,2.78,0,0,0-.5,2.2Z" style="fill:#1e0009"/><path d="M11.12,26.4a1.09,1.09,0,0,0-.4.9c0,.6.7,1.2,2.4,2a29.42,29.42,0,0,0,5.8,1.8c3.3.7,2.9.8,4,1,4.7.8,9.1-.1,9.1-.6s-11.7.8-17.2-3.4C14.32,27.6,12,25.7,11.12,26.4Z" style="fill:#60366c"/><path d="M8.42,25.7a10.09,10.09,0,0,0,4.9,4,52.63,52.63,0,0,0,9.1,2.4c5.9.8,11.1-.1,11.1-.4s-5,.2-12.4-1C14.52,29.5,8.52,25.4,8.42,25.7Z" style="fill:#311f2d"/><path d="M6.32,23.8A27.12,27.12,0,0,0,12,26.5a44.25,44.25,0,0,0,6.1,1.3c2.4.4,4.1.6,6.4.8.7,0,2.9-.1,7.2-.3,2.5-.1,4.3-.2,5.9-1.4.1-.1,1.4-1,1.2-1.4s-.7-.3-3.6.4c-2.5.6-3.8,1-4.8,1.2-1.7.4-3.6.3-7.5-.1a90.59,90.59,0,0,1-9.1-1.3A57.59,57.59,0,0,1,6.32,23.8Z" style="fill:#311f2d"/><path d="M3.42,21.3a1,1,0,0,1,1.2-.6c.3.1.3.5.6.9s1.5.4,1.6.8-.6.7-1.3.8a2,2,0,0,1-1.6-.7c-.2-.3-.6-.7-.5-1.2Z" style="fill:#e7e2e9"/><path d="M18.52,23.9c-.2,0-.2.6-.1,1s.2.3.3.7,0,1,.1,1a1.78,1.78,0,0,0,.5-1.5C19.12,24.3,18.62,23.8,18.52,23.9Zm2.4.6c-.3.1.1,2.3.4,2.3s.3-.7.2-1.3-.5-1-.6-1Zm3.2-.1a1.42,1.42,0,0,0-.3,1.2c.1.6.8,1.4.9,1.3s-.1-.3-.3-1a11.21,11.21,0,0,0-.3-1.5Zm1.8,0c-.2,0-.3.5-.2.8s.3.2.5.5.3.8.4.8.4-1.5-.3-2C26.22,24.4,26.12,24.3,25.92,24.4Zm2.1-.5c-.2,0-.3.5-.1.8s.4.2.6.4.4,1.4.4,1.4a2.69,2.69,0,0,0-.3-2C28.62,24.4,28.22,23.8,28,23.9Zm1.8,0c-.1-.2.6-.6.8-.8a3.1,3.1,0,0,1,1.3-.6c.4-.1.6,0,.8-.1s.1-.6.3-.8.7,0,.8.2-.4.4-.6,1a.64.64,0,0,0,0,.6c.1.3.6.3.9.6s.9,1.6.7,1.7-1-1.7-2.7-2C30.82,23.5,29.92,24.1,29.82,23.9Zm4.7-2.1c-.1-.1.1-.7.6-1a2.25,2.25,0,0,1,1.8.2c1,.5,1.6,1.3,1.5,1.4s-1.4-1.5-2.8-1.1C35,21.5,34.62,21.9,34.52,21.8Zm2.8-1.1c-.2-.2,0-.8,0-1.1a2.38,2.38,0,0,1,.6-1.1,2.82,2.82,0,0,1,2.3-.4A3.1,3.1,0,0,1,42,19c.2.2.4.4.4.5s-.7.1-1,.5,0,.6-.3.8c-.1.1-.2.1-.4.1s-.4-.5-.7-.8a1.88,1.88,0,0,0-.8-.2C38.22,20.1,37.62,21,37.32,20.7Z" style="fill:#1e0009"/><path d="M22.12,15.3c-.6-.8-2.2-.5-3-.2-.4.2-1.1.4-1.3,1s.2.7.6,1.6a7.35,7.35,0,0,0,.7,1.3,7.16,7.16,0,0,0,3,1.5c1.3.3,2.9.7,3.8-.1.4-.3.6-.8,1.1-.9s.6.1,1,.1c1.1,0,2-1.4,2.3-1.8.9-1.4,1.6-3.6.8-4.3-.3-.3-.8-.2-1.5-.1s-2.1.3-2.4,1.1.6,1.1.4,2a1.81,1.81,0,0,1-1.7,1.4c-.4.1-.6,0-1,.2s-.4.6-.7.6-.3-.2-.8-.6l-.6-.6c-.8-.7-.2-1.5-.7-2.2Z" style="fill:#6c6b86"/></g></g></svg>