<svg id="Слой_1" data-name="Слой 1" xmlns="http://www.w3.org/2000/svg" viewBox="0 0 30.5 30.5"><path d="M30.09,15.59a14.5,14.5,0,1,1-14.5-14.5A14.5,14.5,0,0,1,30.09,15.59Z" transform="translate(-0.34 -0.34)" style="fill:none;stroke:#311f2d;stroke-width:1.5px"/><path d="M15.65,10.76v.5H19.8v2.25H15.65v5.58a8.94,8.94,0,0,0,.15,1.55h0v0a1.48,1.48,0,0,0,.23.46v0l0,.05,0,0a2.73,2.73,0,0,0,2.81.62h0l.81-.24.15-.05v2.79a10.28,10.28,0,0,1-2.58.4,8.42,8.42,0,0,1-2.21-.28h0a3.57,3.57,0,0,1-1.91-1.08,4,4,0,0,1-.84-2.1v-.24c0-.13,0-2.48,0-7v-.5H10.41V11.26a2.49,2.49,0,0,0,.84-.22,4.39,4.39,0,0,0,2.64-3.48V7.47h0l0-.07,0-.07V7.24h1.69Z" transform="translate(-0.34 -0.34)" style="fill:none;stroke:#311f2d;stroke-width:1.2000000476837158px"/></svg>