<svg width="32" height="31" viewBox="0 0 32 31" fill="none" xmlns="http://www.w3.org/2000/svg">
<g clip-path="url(#clip0_723_8913)">
<path d="M15.9029 30.6726C24.3729 30.6726 31.2392 23.8063 31.2392 15.3363C31.2392 6.86631 24.3729 0 15.9029 0C7.43283 0 0.566528 6.86631 0.566528 15.3363C0.566528 23.8063 7.43283 30.6726 15.9029 30.6726Z" fill="#AAC8C8"/>
<path d="M20.5037 25.0129H17.2706C14.3601 25.0129 12.1903 23.5156 12.1903 19.9326V14.1957H9.54565V11.0898C12.4561 10.3332 13.674 7.82942 13.8194 5.6687H16.8412V10.5945H20.3629V14.2048H16.8367V19.2033C16.8367 20.7006 17.5933 21.2186 18.7952 21.2186H20.5037V25.0129Z" fill="#311F2D"/>
</g>
<defs>
<clipPath id="clip0_723_8913">
<rect width="30.6726" height="30.6726" fill="white" transform="translate(0.566528)"/>
</clipPath>
</defs>
</svg>
