<svg width="32" height="31" viewBox="0 0 32 31" fill="none" xmlns="http://www.w3.org/2000/svg">
<g clip-path="url(#clip0_723_8910)">
<path d="M15.87 30.6726C24.34 30.6726 31.2063 23.8063 31.2063 15.3363C31.2063 6.86631 24.34 0 15.87 0C7.39994 0 0.53363 6.86631 0.53363 15.3363C0.53363 23.8063 7.39994 30.6726 15.87 30.6726Z" fill="#AAC8C8"/>
<path d="M23.3336 9.10639C23.3214 9.04696 23.2941 8.99167 23.2543 8.94589C23.2145 8.90011 23.1636 8.8654 23.1064 8.8451C22.8911 8.80335 22.6685 8.81904 22.4611 8.89056C22.4611 8.89056 8.12906 14.0436 7.30885 14.6138C7.1339 14.7365 7.08165 14.8092 7.04529 14.891C6.90443 15.2977 7.3452 15.4772 7.3452 15.4772L11.0395 16.6814C11.1008 16.6963 11.1647 16.6963 11.2259 16.6814C12.0665 16.1497 19.6801 11.3421 20.1209 11.1808C20.1891 11.1603 20.2413 11.1808 20.2277 11.2308C20.0505 11.8488 13.4366 17.7266 13.4366 17.7266C13.4205 17.7477 13.4067 17.7705 13.3957 17.7947L13.0526 21.4595C13.0526 21.4595 12.9072 22.5819 14.0296 21.4595C14.8225 20.6666 15.5882 20.0031 15.9722 19.6828C17.2422 20.5598 18.61 21.53 19.1985 22.0366C19.2979 22.1322 19.4155 22.207 19.5443 22.2565C19.673 22.3061 19.8104 22.3294 19.9483 22.3252C20.5072 22.3047 20.6639 21.689 20.6639 21.689C20.6639 21.689 23.2768 11.1762 23.3631 9.76757C23.3631 9.63124 23.3836 9.54036 23.3836 9.4472C23.3849 9.33168 23.3681 9.21667 23.3336 9.10639Z" fill="#311F2D"/>
</g>
<defs>
<clipPath id="clip0_723_8910">
<rect width="30.6726" height="30.6726" fill="white" transform="translate(0.53363)"/>
</clipPath>
</defs>
</svg>
