<svg id="Слой_1" data-name="Слой 1" xmlns="http://www.w3.org/2000/svg" viewBox="0 0 30.5 30.5">
    <path d="M30.06,15.56a14.5,14.5,0,1,1-14.5-14.5A14.51,14.51,0,0,1,30.06,15.56Z" transform="translate(-0.31 -0.31)" style="fill:none;stroke:#E3D2D8;stroke-width:1.5px"/>
    <path d="M17.5,12.82l-6.79,4.51a2.75,2.75,0,0,1-2.6.35c-.83-.24-1.65-.52-2.06-.66H5.94c-1.34-.46-1-1.06.28-1.63,5-2.21,11.48-4.89,12.83-5.45l.14-.06c2.45-1,3.21-.82,2.83,1.43-.08.5-.21,1.34-.37,2.37-.36,2.34-.87,5.64-1.3,8M17.5,12.9a.29.29,0,0,1,.41,0,.31.31,0,0,1-.05.41L13,18c-1,1-.28,1.56.33,2l.08,0c.68.49,3.83,2.58,4.46,3M17.5,12.92l-.28-.41m.28.41-.28-.41M17.86,23c1.3.86,2.12.63,2.49-1.36M17.86,23l.27-.41h0m-.27.41.27-.41m2.22-1h-.49a4.43,4.43,0,0,1-.3,1,.9.9,0,0,1-.31.36c-.15.07-.47.07-1.11-.35m2.21-1h-.49c.43-2.31.93-5.59,1.29-7.93.16-1,.29-1.88.38-2.39a4,4,0,0,0,0-1.2c0-.21-.1-.24-.13-.26a1,1,0,0,0-.63,0,8,8,0,0,0-1.45.49M18.13,22.56c-.63-.42-3.77-2.5-4.44-3h-.08l-.37-.27A1.05,1.05,0,0,1,13,19a.19.19,0,0,1,0-.18,1.08,1.08,0,0,1,.35-.49h0l4.86-4.65h0a.79.79,0,0,0,.11-1.12.78.78,0,0,0-1.11-.11m0,0h0m0,0h0m0,0c-2.65,1.7-6.31,4.1-6.78,4.46h0a2.49,2.49,0,0,1-.91.41,3,3,0,0,1-1.27-.13h0c-.82-.23-1.63-.51-2-.65H6.14a2,2,0,0,1-.49-.23m13.76-6-.19-.46Zm0,0-.14.06c-1.34.56-7.79,3.23-12.81,5.45a2.86,2.86,0,0,0-.69.37l-.12.1m0,0h0a.14.14,0,0,1,0,.09H5.56Z" transform="translate(-0.31 -0.31)" style="fill:none;stroke:#E3D2D8"/>
</svg>