<svg id="Слой_1" data-name="Слой 1" xmlns="http://www.w3.org/2000/svg" viewBox="0 0 46 46">
    <path d="M25,2A23,23,0,1,0,48,25,23,23,0,0,0,25,2Zm0,2A21,21,0,1,1,4,25,21,21,0,0,1,25,4ZM15,18H11a3.08,3.08,0,0,0-.51,0,1.5,1.5,0,0,0-1.12.53h0A1.41,1.41,0,0,0,9,19.77a1.83,1.83,0,0,0,.15.48h0c0,.09,3,7.27,6.66,11.13A10.69,10.69,0,0,0,23.71,35H25a2.43,2.43,0,0,0,1.22-.24A1.61,1.61,0,0,0,27,33.48a6.25,6.25,0,0,1,.08-1.26c.06-.25,0-.19.06-.19l.15.06a4.79,4.79,0,0,1,.76.49c.61.48,1.33,1.17,2.14,1.7a4.51,4.51,0,0,0,2.42.72h4.2a3,3,0,0,0,1.3-.42A1.87,1.87,0,0,0,39,33.46a2.18,2.18,0,0,0-.36-1.64,17.44,17.44,0,0,0-3-3,12.35,12.35,0,0,1-1.15-1.09l-.07-.07a3.77,3.77,0,0,1,.49-.76c.37-.48.93-1.14,1.64-2.05a14.72,14.72,0,0,0,2-3.23,8,8,0,0,0,.43-1.28,2.2,2.2,0,0,0,0-1.17,1.44,1.44,0,0,0-.6-.81,1.73,1.73,0,0,0-.69-.27A6.56,6.56,0,0,0,36.53,18l-4.21,0a2.61,2.61,0,0,0-1,.26,1.66,1.66,0,0,0-.75.77l-.06.1,0,.11A19.94,19.94,0,0,1,29,22.86h0A6.44,6.44,0,0,1,27.12,25l0,0a1.75,1.75,0,0,1-.07-.33c0-.38,0-.91,0-1.43a27.15,27.15,0,0,0,0-3.18,2.21,2.21,0,0,0-.56-1.25,2.38,2.38,0,0,0-1.24-.65h0A8.83,8.83,0,0,0,23,18a8.13,8.13,0,0,0-3.43.43h0a2.62,2.62,0,0,0-.87.61,1.05,1.05,0,0,0-.37.62,1.15,1.15,0,0,0,.17.89,1.06,1.06,0,0,0,.74.42s.15,0,.29.11a1,1,0,0,1,.29.21h0a3.05,3.05,0,0,1,.16.63,3.6,3.6,0,0,1,0,.55v.13A9.77,9.77,0,0,1,20,24a4.29,4.29,0,0,1-.12.92h0a7.75,7.75,0,0,1-1.63-2.09,20.46,20.46,0,0,1-1.42-3.4l0-.05v-.05a1.77,1.77,0,0,0-.7-.89,2.42,2.42,0,0,0-1-.42Zm-.23,2,.2.07L15,20l0,.08h0c-.05,0,0,0,0,0a18.5,18.5,0,0,0,1.59,3.77,8.46,8.46,0,0,0,2.21,2.72,2.24,2.24,0,0,0,2.12.18,1.87,1.87,0,0,0,.94-1.33A5.85,5.85,0,0,0,22,24.08a13.32,13.32,0,0,0,0-1.58,6.13,6.13,0,0,0,0-.8,3.14,3.14,0,0,0-.54-1.54A6.37,6.37,0,0,1,23,20a6.27,6.27,0,0,1,1.75.16c.24.06.27.1.24.08s0,0,0,.15c0,.39,0,1.39,0,2.9A13.74,13.74,0,0,0,25,25a2.41,2.41,0,0,0,1,1.9,2.12,2.12,0,0,0,2-.07,7.74,7.74,0,0,0,2.56-2.87A16.71,16.71,0,0,0,32.28,20h0s0,0,0,0l4.21,0,.41,0a6.21,6.21,0,0,1-.27.79A12.93,12.93,0,0,1,35,23.58c-.7.89-1.24,1.53-1.65,2.07a3.84,3.84,0,0,0-.87,1.57A2.19,2.19,0,0,0,32.93,29a11.16,11.16,0,0,0,1.38,1.32,15.54,15.54,0,0,1,2.59,2.6h0c0,.06,0,0,0,0l-.29.09h-4a2.82,2.82,0,0,1-1.3-.39h0c-.58-.39-1.29-1-2-1.61a6,6,0,0,0-1.16-.74,2.21,2.21,0,0,0-1.54-.16,2.26,2.26,0,0,0-1.44,1.67A4.79,4.79,0,0,0,25,33H23.71a8.42,8.42,0,0,1-6.42-3c-3-3.1-5.62-9.09-6-10Zm17.44,0h.07S32.24,20,32.21,20Z" transform="translate(-2 -2)" style="fill:#E3D2D8"/>
</svg>