<svg width="31" height="31" viewBox="0 0 31 31" fill="none" xmlns="http://www.w3.org/2000/svg">
<g clip-path="url(#clip0_756_8933)">
<path d="M15.6637 30.6726C24.1337 30.6726 31 23.8063 31 15.3363C31 6.86631 24.1337 0 15.6637 0C7.1937 0 0.327393 6.86631 0.327393 15.3363C0.327393 23.8063 7.1937 30.6726 15.6637 30.6726Z" fill="#713349"/>
<path d="M26.3999 9.77581C26.4403 9.64333 26.4598 9.51988 26.4549 9.41029C26.4417 9.09194 26.2214 8.86098 25.7043 8.86098H23.1697C22.5863 8.86098 22.3166 9.21263 22.1598 9.56496C22.1598 9.56496 20.7193 12.5161 19.0586 14.4616C18.5198 15.0248 18.2466 15.1031 17.9553 15.1031C17.7992 15.1031 17.4048 14.8229 17.4048 14.3069V9.75153C17.4048 9.14188 17.2521 8.86098 16.7587 8.86098H12.9605C12.6009 8.86098 12.5173 9.14188 12.5173 9.42417C12.5173 10.0102 13.1501 10.1039 13.2407 11.7456V14.9284C13.2407 15.7017 12.8567 15.7967 12.5654 15.7967C11.78 15.7967 10.2328 13.2534 9.19791 9.79939C8.97211 9.11899 8.7477 8.86098 8.16438 8.86098H5.65688C4.98366 8.86098 4.87146 9.18974 4.87146 9.54069C4.87146 10.1739 5.57534 13.5988 8.46615 17.5362C10.5632 20.3916 13.325 22.0389 15.7705 22.0389C17.2515 22.0389 17.4034 21.6636 17.4034 21.0776V18.6979C17.4041 17.9939 17.5658 17.8774 18.0376 17.8774C18.3742 17.8774 19.0599 17.8656 20.3841 19.4033C21.911 21.1761 22.1884 22.0389 23.0644 22.0389H25.3754C25.912 22.0389 26.4431 21.8148 26.4556 21.38C26.4584 21.269 26.4424 21.1455 26.4061 21.0075C26.234 20.5012 25.2256 19.2646 24.2457 18.0855C23.7028 17.4328 23.1669 16.7864 22.9209 16.4348C22.7557 16.2052 22.693 16.0436 22.7013 15.889C22.709 15.7267 22.794 15.572 22.9209 15.3556C22.8979 15.3556 26.1085 11.1824 26.3999 9.77581Z" fill="#E3D2D8"/>
</g>
<defs>
<clipPath id="clip0_756_8933">
<rect width="30.6726" height="30.6726" fill="white" transform="translate(0.327393)"/>
</clipPath>
</defs>
</svg>
