<svg xmlns="http://www.w3.org/2000/svg" viewBox="0 0 51.47 32.29"><g id="Слой_2" data-name="Слой 2"><g id="Слой_1-2" data-name="Слой 1"><path d="M12.86,11.25c-.17-1,2.51-2.55,4.25-3.16s2.23-.45,6.2-1.39C24.39,6.42,26,6,26,5.39s-.88-.71-1-1.7a1.35,1.35,0,0,1,.25-1.19A9.19,9.19,0,0,1,29,1.87c4.83,1.14,4.4.36,8.62,2.18.86.35,4.58,4.24,7.08,5.31,3,1.26,4.22,4.7,6.1,6.09s-4.35-.41-4.91-.78C38.22,9.63,13.42,14.11,12.86,11.25Z" style="fill:#595055"/><path d="M16.66,10.7c-3.75,1.13-5.14,3.08-5.49,3.61-1,1.57-1.9,4.15-1.09,6.25,1.72,4.5,10.65,5.63,17.15,3.61,4-1.26,10.11-4.7,9.73-8.09C36.48,11.58,24.6,8.29,16.66,10.7Z" style="fill:#fff"/><path d="M16.71,23c-1.17-.3-2.91-.27-4.63-2.47a4.42,4.42,0,0,1-1-3.54c.23-1,1-1.67,4.17-3.54a33.35,33.35,0,0,1,5-2.68c4.37-1.34,10.51-.38,12.11,2.68.35.7.68,1.89,1.26,1.89s.76-1.49,1.65-1.64,1.74.81,1.89,1.77-.38,1.64-1.14,2.86c-.4.68-.58.83-.5.93s5.11-.81,5.56-2.91c.53-2.55-4.42-6.59-9.61-7.58-1.84-.35-3.69-.1-7.38.38-5,.66-7.81,1-11.13,2.7-1.46.74-7.23,3.64-6.82,6.81.28,2,3,3.28,4,3.74C13.34,23.92,17.06,23.14,16.71,23Z" style="fill:#b8bdcc"/><path d="M30,2.17C28,1.72,27.18.48,26.16.68S25,3.06,23.23,3.79c-.81.36-.4,2.58.13,2.91s1.26-.73,2.78-.76,1.49.74,2.65.71c1.6,0,3.16-1.44,3-2.1S32.23,2.71,30,2.17Z" style="fill:#e6dae9"/><path d="M3.76,14.16c-.1-.15,1.87-1.19,2-3,.08-.78-.25-1.57.18-1.84s.38,0,.84-.11A2.08,2.08,0,0,0,8.39,7.84c.18-.68-.3-1.19-.08-1.37s.48.15.94.26A4.29,4.29,0,0,0,11.5,6a28.67,28.67,0,0,1,3-1.54c1.82-.71,2.88-1.14,4.14-1,.26,0,.71.1.91-.15s-.32-1.6-.15-1.7.53.89,1.52,1.27a10.94,10.94,0,0,0,2.53,0,1.83,1.83,0,0,0,.91-.18c.25-.15.6-1,.86-1.09s.5.58,1.08,1A3.85,3.85,0,0,0,28.54,3,17.45,17.45,0,0,1,32,3.54a33.36,33.36,0,0,1,5.49,1.82c.81.3,1.62.61,2.43,1a15.45,15.45,0,0,0,2,.76,4.42,4.42,0,0,1,1,.25c.84.36.81.89,1.52,1.34s1.74.15,2,.69a1.09,1.09,0,0,1-.55,1.44C45.46,11,44.55,9.05,43,9c-.41,0-.68.13-1.09-.07s-.43-.69-.91-1S39.74,8,39,7.64s-.61-.61-.89-1c-.58-.78-1.41-1.06-4.8-1.77-1.82-.38-2.73-.58-3.39-.68A35.31,35.31,0,0,0,24,3.69a25.49,25.49,0,0,0-7.16,1,24.36,24.36,0,0,0-5.66,2.53C9.32,8.32,8.39,8.88,7.6,10.06a17,17,0,0,1-1.31,2.15A5.62,5.62,0,0,1,3.76,14.16Z" style="fill:#311f2d"/><path d="M5.18,16.26C4.77,15.9-.89,20,.12,22.5c.28.66,1.82.84,2.63,1,1.39.35,1.44,0,2.6.63a2,2,0,0,1,.84.81,24.46,24.46,0,0,1,2.2,3.36c.91,1.45-.84-3.94-2.07-4.62-1.88-1-2.89-.71-3.42-1.55C1.79,20.4,5.53,16.59,5.18,16.26Z" style="fill:#443648"/><path d="M39.74,12c-.35.18-1.34-1.34-2.65-2.65-3.11-3.19-6.55-3.77-6.45-4s3.49.56,6.45,2.4a5.49,5.49,0,0,1,2.53,2.78C39.82,11,40,11.86,39.74,12Z" style="fill:#311f2d"/><path d="M4,10.24c0,.3-.3,1.06.89-1.06,1.79-3.21,5.36-4,7.08-4.73a34.51,34.51,0,0,1,4.55-1.52A17.3,17.3,0,0,0,6.21,6.65,6,6,0,0,0,4,10.24Z" style="fill:#311f2d"/><path d="M11,26.3a1.11,1.11,0,0,0-.38.88c0,.63.74,1.24,2.41,2A28.09,28.09,0,0,0,18.88,31c3.34.74,2.91.76,4,1,4.65.81,9.13-.12,9.13-.58s-11.66.76-17.19-3.41C14.25,27.48,12,25.64,11,26.3Z" style="fill:#60366c"/><path d="M8.41,25.59a10.25,10.25,0,0,0,4.91,4A46.66,46.66,0,0,0,22.42,32c5.94.75,11.15-.11,11.13-.38s-5,.22-12.39-1C14.51,29.46,8.52,25.31,8.41,25.59Z" style="fill:#311f2d"/><path d="M6.24,23.74A22.33,22.33,0,0,0,12,26.4a53.57,53.57,0,0,0,6.14,1.29,63.38,63.38,0,0,0,6.45.76c.71,0,2.88-.08,7.21-.26,2.53-.12,4.27-.23,5.94-1.39.13-.1,1.36-1,1.21-1.36s-.68-.31-3.61.35c-2.53.56-3.85,1-4.81,1.24-1.69.4-3.64.25-7.46-.1A89.7,89.7,0,0,1,14,25.66C9.07,24.7,5.33,23.41,6.24,23.74Z" style="fill:#311f2d"/><path d="M15.47,24.65c0-.17,2.68.33,6.7,0a59.14,59.14,0,0,0,7.58-.88c.91-.28,1.72-.61,2.15-.13s.18,1.14-.12,1.64c-.66,1-2.43,1.22-10.34.28A47.52,47.52,0,0,1,15.47,24.65Z" style="fill:#e4d3e9"/><path d="M18.45,23.77c-.18.05-.15.6-.07,1s.17.33.25.68,0,1,.1,1A1.83,1.83,0,0,0,19.21,25C19.11,24.17,18.63,23.69,18.45,23.77Z" style="fill:#1e0009"/><path d="M20.85,24.45c-.25.08.11,2.3.38,2.3s.33-.71.18-1.34S21,24.4,20.85,24.45Z" style="fill:#1e0009"/><path d="M24.07,24.27c-.13,0-.38.58-.31,1.19s.76,1.39.89,1.34-.08-.28-.26-1S24.19,24.27,24.07,24.27Z" style="fill:#1e0009"/><path d="M25.91,24.27c-.23.05-.33.51-.2.81s.28.23.5.51.33.83.38.83.36-1.46-.33-2A.37.37,0,0,0,25.91,24.27Z" style="fill:#1e0009"/><path d="M28,23.77c-.17.05-.25.45-.12.76s.38.2.63.43.35,1.39.38,1.39a2.63,2.63,0,0,0-.25-2C28.59,24.27,28.24,23.69,28,23.77Z" style="fill:#1e0009"/><path d="M29.75,23.77c-.07-.2.56-.63.76-.76a2.64,2.64,0,0,1,1.27-.58c.43-.05.58,0,.76-.13s.1-.61.32-.76a.59.59,0,0,1,.76.2c.08.23-.35.38-.58,1a.92.92,0,0,0,0,.63c.13.33.56.33.89.55s.88,1.6.68,1.72-1-1.72-2.66-2C30.82,23.41,29.86,24,29.75,23.77Z" style="fill:#1e0009"/><path d="M34.51,21.74c-.13-.12.1-.7.55-1a2.36,2.36,0,0,1,1.77.21c1,.45,1.6,1.29,1.52,1.39s-1.44-1.47-2.78-1.14C35,21.37,34.61,21.85,34.51,21.74Z" style="fill:#1e0009"/><path d="M37.29,20.66c-.23-.18,0-.79.05-1.06A2.36,2.36,0,0,1,38,18.51a2.7,2.7,0,0,1,2.28-.38,4,4,0,0,1,1.84.88c.23.18.41.36.38.51s-.68.1-1,.51,0,.58-.3.83a.65.65,0,0,1-.38.13c-.33,0-.36-.48-.73-.76a1.63,1.63,0,0,0-.79-.2C38.2,20,37.59,20.89,37.29,20.66Z" style="fill:#1e0009"/><path d="M14.79,27.11c.07-.28,3.18.73,8.64,1.08,6.75.43,10.93-.55,11-.2S30,30,24.7,29.84,14.68,27.46,14.79,27.11Z" style="fill:#e4d3e9"/></g><g id="угол-правый"><path d="M31.27,10.42c.41.35.81.88,3.36,1.11,2.15.2.74.43,3,1.67.35.2.81.45.88.88s-.28.94-.76,1.65A11,11,0,0,1,36.1,17.4a9.34,9.34,0,0,1,2.33-1.34c.22,0,.38-.18,1.39.55a5.34,5.34,0,0,0,1.08.63l.56.18c.86.38,1.09,1.29,1.27,1.21s.15-.55-.06-1-.75-.78-.7-.88.6.28,1,.05.28-.61.58-.68.58.48.88.38.13-.26.43-.64.36-.43.59-.45.38.53.75.63.81-.3,1.39-.68c1-.74,1.5.71,2.15.15s1.72.58,1.72.35-1.77-2.25-2.58-1.79c-.43.2-.75.25-1-.05s0-.84-.2-1-.71.35-1.52.63-1.11.07-2.4.07S42,14,41.21,14c-1.62-.15-2.13-1.55-3.54-2.61C34.68,9.15,30.89,10.06,31.27,10.42Z" style="fill:#56003f"/></g><g id="яблоко"><path d="M16.66,10.7a4.63,4.63,0,0,0-1,3.21c-.18,3.23,2.09,5.66,3,6.57a9.33,9.33,0,0,0,2.3,1.9c3.65,1.89,7.62,0,8.17-.31a7.7,7.7,0,0,0,3.21-2.7,9.42,9.42,0,0,0,1.24-4.81c.15-2.3.23-3.43-.5-4.34C31.83,8.77,29.4,8.88,28,8.93a11.57,11.57,0,0,0-2.71.43C20,10.32,18.1,9.23,16.66,10.7Z"/></g><g id="угол-внутренний-девый"><path d="M5.35,16.44c-3,2.8-3.16,4.07-3,4.77a2.4,2.4,0,0,0,.58,1.17c.94,1,2.51.68,4.86.63s1.21-.48,4.07-.1,6.17.6,6.24.6c1-.1-6.19-1.06-8.67-2a4.71,4.71,0,0,1-2.28-1.77,2.53,2.53,0,0,1-.37-1.94c.27-.79,1.13-.84,2.4-1.85a12.19,12.19,0,0,0,1.51-1.64C13,11.56,17.09,11.07,17,10.8s-1-.13-2.25.15A19.38,19.38,0,0,0,5.35,16.44Z" style="fill:#56003f"/></g><g id="яблоко-блик-верх"><path d="M21,9.76a2.6,2.6,0,0,0-.5,1.11A1.39,1.39,0,0,0,20.7,12c.31.3,1.7.17,1.7.17s0,1.34.25,1.44.28-.3.91-1,.66-.73.93-.86,1,.13,1.27-.07a2.32,2.32,0,0,0-.51-2.46C24.47,8.52,21.89,8.72,21,9.76Z" style="fill:#bcbcd1"/></g><g id="веко-верх"><path d="M1.81,22.33c.13,0,.31-1,1.14-2.23a5,5,0,0,1,2-2c1-.46.86-.18,1.26-.51s.38-1.29,1-1.77,1-.07,1.64-.5.43-.69.89-1.27,1.31-.7,3.41-1.89c.94-.53.76-.53,1.27-.76a8.21,8.21,0,0,1,3.28-.63c1.9-.18,1.82-.43,3.67-.64a30.36,30.36,0,0,1,7.08.38c1.82.23,2.58.71,4.15.66h1.74a2.93,2.93,0,0,1,2.45,1.24A11.47,11.47,0,0,0,40,14.29a5.92,5.92,0,0,0,3.92.25,4.12,4.12,0,0,0,2.78-2.91c.13-.81-.12-1.64-.37-1.64S46,11.78,44.8,12.64s-3.29.31-3.42-.25,2.51-1,3.29-3c.46-1.22.13-2.51-.12-2.53S44.24,8.32,43,9.73c-.86,1-2.2,1.85-2.66,1.52s1.22-4.07.76-4.3-1.57,1.72-2,1.52.15-2.53.13-2.53a2.9,2.9,0,0,1-.89,2,3.38,3.38,0,0,1-1,.38c-1.34.46-1.9,1-2,.89s1.41-1.34,2-3.29.08-3.54-.13-3.54.13,2.08-1.13,4.05c-.92,1.39-2.51,2.48-3,2.15s-.1-1.49,0-1.9c.58-2.2,2.2-3.34,2-3.54s-1.16.23-2,1.14C31.57,5.82,32,7.46,30.89,7.84A1.93,1.93,0,0,1,29,7.21c-.41-.51.1-1.8.12-4A6.78,6.78,0,0,0,28.62,0a14.18,14.18,0,0,1-.51,4.93c0,.13-.78,2.35-1.39,2.28s-.78-3.44-1.14-3.42-.1,1.7-1.14,3.42c-.32.53-.88,1.46-1.39,1.39-1.24-.21-1.24-6.35-1.51-6.32s-.36,2.9-.38,3.16C21.08,7,21.11,7.51,20.65,8a2.23,2.23,0,0,1-2,.38c-2.45-.73-2.86-5.79-3.29-5.68s-.23,1.39,0,2.65.46,1.47.63,2.78,0,1.7-.12,1.77a2.94,2.94,0,0,1-1.77-.5,5,5,0,0,1-1.39-3.42s1,4.05.25,4.43-1.62-1-2.28-2A11.65,11.65,0,0,1,9.53,5.06,5.21,5.21,0,0,0,10,9.48c.46.68,1,1,.89,1.65a1.67,1.67,0,0,1-1.65,1.26c-1-.15-1.49-1.72-1.64-1.64s1,1.72.38,2.9a2,2,0,0,1-1.77,1c-.73-.08-1.19-.79-1.39-.64s.48,1,.13,1.65-1.07.22-1.4.76.23.78.13,1.51-.91,1-1.52,2.15A2.87,2.87,0,0,0,1.81,22.33Z" style="fill:#1e0009"/></g><g id="блик-угол-низ"><path d="M3.43,21.24a1,1,0,0,1,1.17-.61c.32.13.25.46.6.86s1.55.43,1.6.76-.61.68-1.27.76a2,2,0,0,1-1.59-.68C3.69,22.07,3.31,21.67,3.43,21.24Z" style="fill:#e7e2e9"/></g><g id="яблоко-низ"><path id="яблоко-низ-2" data-name="яблоко-низ" d="M22,15.22c-.6-.78-2.2-.5-3-.18-.41.16-1.11.43-1.27,1s.18.73.64,1.64a11,11,0,0,0,.7,1.31,7.67,7.67,0,0,0,3,1.52c1.32.3,2.91.68,3.79-.13.38-.32.56-.83,1.14-.93s.56.13,1,.13c1.07-.05,2-1.37,2.28-1.85.88-1.37,1.62-3.64.76-4.35-.33-.28-.79-.23-1.52-.13s-2.07.26-2.4,1.14.63,1.14.38,2a2,2,0,0,1-1.7,1.44c-.37.05-.6,0-1,.2s-.4.61-.68.63-.3-.15-.83-.63l-.64-.58C22,16.74,22.57,15.88,22,15.22Z" style="fill:#6c6b86"/></g><g id="блик-угол-верх"><path d="M5,18.08c-.33.05-.59.78-.46,1.39.2,1,1.44,1.67,1.77,1.42s-.1-1.29-.38-1.83S5.35,18,5,18.08Z" style="fill:#e4d3e9"/></g></g></svg>